<svg width="18" height="24" viewBox="0 0 18 24" xmlns="http://www.w3.org/2000/svg">
<g clip-path="url(#clip0_577_523)">
<path d="M17.2281 6.14153C16.7629 5.09796 16.0154 4.36746 14.98 3.96162C14.3875 3.72392 13.7674 3.68914 13.1472 3.71812C12.9534 3.72392 12.8704 3.67754 12.815 3.46303C12.5104 2.3267 11.8294 1.52662 10.7718 1.1034C10.5392 1.01064 10.2845 0.964255 10.0409 0.894684C9.34875 0.894684 8.65661 0.894684 7.97001 0.894684C7.82605 0.92947 7.67655 0.958458 7.53258 1.00484C6.28673 1.38748 5.506 2.24553 5.16824 3.54419C5.13502 3.67754 5.09072 3.72392 4.96337 3.71812C4.74188 3.70653 4.5204 3.70653 4.29891 3.71812C2.63225 3.80509 1.44177 4.63994 0.744093 6.22269C0.522609 6.72709 0.810539 7.1793 1.34764 7.1851C1.81275 7.1851 2.27233 7.1851 2.73745 7.1851C7.34986 7.1851 11.9623 7.1851 16.5747 7.1851C17.2281 7.1793 17.4994 6.75028 17.2281 6.14153ZM6.40301 3.69493C6.69094 2.90646 7.17821 2.34989 7.95894 2.25133C8.64554 2.16436 9.35429 2.16436 10.0409 2.25133C10.8216 2.34989 11.3144 2.90646 11.6024 3.69493C9.8637 3.69493 8.1472 3.69493 6.40301 3.69493Z" fill="white"/>
<path d="M2.20008 9.6085C2.31636 11.3304 2.43264 13.0581 2.54892 14.78C2.69288 16.9367 2.84792 19.0934 2.99188 21.2501C3.05833 22.2937 3.85013 23.1111 4.85235 23.1111C7.6209 23.1169 10.3894 23.1169 13.158 23.1111C14.1602 23.1111 14.9575 22.2937 15.0129 21.2501C15.0406 20.7689 15.0738 20.2819 15.107 19.8007C15.2233 18.073 15.3451 16.3395 15.4614 14.6118C15.5666 13.0523 15.6718 11.4985 15.7826 9.93896C15.8158 9.46356 15.8435 8.98815 15.8767 8.50695C11.2865 8.50695 6.71281 8.50695 2.12256 8.50695C2.15024 8.8722 2.17793 9.24325 2.20008 9.6085ZM10.5223 15.8119C10.5279 15.696 10.5334 15.58 10.5389 15.4641C10.5943 14.3046 10.6497 13.1392 10.7051 11.9797C10.7217 11.6145 11.0041 11.342 11.3418 11.3478C11.6851 11.3536 11.962 11.6493 11.9454 12.0319C11.9066 12.9827 11.8623 13.9393 11.8125 14.8901C11.746 16.2294 11.6796 17.5744 11.6187 18.9137C11.6021 19.2441 11.4415 19.476 11.1646 19.563C10.9155 19.6384 10.6386 19.563 10.5113 19.3253C10.4282 19.1803 10.3784 18.989 10.3839 18.8209C10.4171 17.8179 10.4725 16.8149 10.5223 15.8119ZM6.65744 11.3478C6.9952 11.3362 7.28313 11.6029 7.30528 11.9681C7.36619 13.1392 7.41602 14.3046 7.47693 15.4757C7.52676 16.5076 7.5766 17.5396 7.62643 18.5716C7.63197 18.6875 7.63751 18.8035 7.63751 18.9195C7.63751 19.2905 7.37726 19.5804 7.04504 19.592C6.6962 19.6036 6.41935 19.3311 6.3972 18.9484C6.3529 18.1194 6.31414 17.2903 6.27538 16.4613C6.20894 15.093 6.14249 13.719 6.07605 12.3508C6.07051 12.2348 6.06497 12.1189 6.06497 12.0029C6.06497 11.6435 6.32521 11.3594 6.65744 11.3478Z" fill="white"/>
<path d="M17.2281 6.14153C16.7629 5.09796 16.0154 4.36746 14.98 3.96162C14.3875 3.72392 13.7674 3.68914 13.1472 3.71812C12.9534 3.72392 12.8704 3.67754 12.815 3.46303C12.5104 2.3267 11.8294 1.52662 10.7718 1.1034C10.5392 1.01064 10.2845 0.964255 10.0409 0.894684C9.34875 0.894684 8.65661 0.894684 7.97001 0.894684C7.82605 0.92947 7.67655 0.958458 7.53258 1.00484C6.28673 1.38748 5.506 2.24553 5.16824 3.54419C5.13502 3.67754 5.09072 3.72392 4.96337 3.71812C4.74188 3.70653 4.5204 3.70653 4.29891 3.71812C2.63225 3.80509 1.44177 4.63994 0.744093 6.22269C0.522609 6.72709 0.810539 7.1793 1.34764 7.1851C1.81275 7.1851 2.27233 7.1851 2.73745 7.1851C7.34986 7.1851 11.9623 7.1851 16.5747 7.1851C17.2281 7.1793 17.4994 6.75028 17.2281 6.14153ZM6.40301 3.69493C6.69094 2.90646 7.17821 2.34989 7.95894 2.25133C8.64554 2.16436 9.35429 2.16436 10.0409 2.25133C10.8216 2.34989 11.3144 2.90646 11.6024 3.69493C9.8637 3.69493 8.1472 3.69493 6.40301 3.69493Z" fill="white"/>
<path d="M2.20008 9.6085C2.31636 11.3304 2.43264 13.0581 2.54892 14.78C2.69288 16.9367 2.84792 19.0934 2.99188 21.2501C3.05833 22.2937 3.85013 23.1111 4.85235 23.1111C7.6209 23.1169 10.3894 23.1169 13.158 23.1111C14.1602 23.1111 14.9575 22.2937 15.0129 21.2501C15.0406 20.7689 15.0738 20.2819 15.107 19.8007C15.2233 18.073 15.3451 16.3395 15.4614 14.6118C15.5666 13.0523 15.6718 11.4985 15.7826 9.93896C15.8158 9.46356 15.8435 8.98815 15.8767 8.50695C11.2865 8.50695 6.71281 8.50695 2.12256 8.50695C2.15024 8.8722 2.17793 9.24325 2.20008 9.6085ZM10.5223 15.8119C10.5279 15.696 10.5334 15.58 10.5389 15.4641C10.5943 14.3046 10.6497 13.1392 10.7051 11.9797C10.7217 11.6145 11.0041 11.342 11.3418 11.3478C11.6851 11.3536 11.962 11.6493 11.9454 12.0319C11.9066 12.9827 11.8623 13.9393 11.8125 14.8901C11.746 16.2294 11.6796 17.5744 11.6187 18.9137C11.6021 19.2441 11.4415 19.476 11.1646 19.563C10.9155 19.6384 10.6386 19.563 10.5113 19.3253C10.4282 19.1803 10.3784 18.989 10.3839 18.8209C10.4171 17.8179 10.4725 16.8149 10.5223 15.8119ZM6.65744 11.3478C6.9952 11.3362 7.28313 11.6029 7.30528 11.9681C7.36619 13.1392 7.41602 14.3046 7.47693 15.4757C7.52676 16.5076 7.5766 17.5396 7.62643 18.5716C7.63197 18.6875 7.63751 18.8035 7.63751 18.9195C7.63751 19.2905 7.37726 19.5804 7.04504 19.592C6.6962 19.6036 6.41935 19.3311 6.3972 18.9484C6.3529 18.1194 6.31414 17.2903 6.27538 16.4613C6.20894 15.093 6.14249 13.719 6.07605 12.3508C6.07051 12.2348 6.06497 12.1189 6.06497 12.0029C6.06497 11.6435 6.32521 11.3594 6.65744 11.3478Z" fill="white"/>
</g>
<defs>
<clipPath id="clip0_577_523">
<rect width="16.6667" height="22.2222" fill="currentcolor" transform="translate(0.666504 0.888885)"/>
</clipPath>
</defs>
</svg>
