<svg width="14" height="15" viewBox="0 0 14 15" fill="none" xmlns="http://www.w3.org/2000/svg">
<path d="M1.41303 6.76658C1.64369 6.82592 1.86169 6.89625 2.08503 6.93725C3.04769 7.11358 3.92936 6.90925 4.72703 6.34458C4.81069 6.28558 4.86436 6.27958 4.95303 6.34092C6.22403 7.22325 7.78203 7.22158 9.06736 6.34092C9.13703 6.29292 9.18303 6.27225 9.26536 6.32992C10.2654 7.02992 11.3464 7.18792 12.503 6.78158C12.5185 6.77613 12.5343 6.77178 12.5504 6.76858C12.5671 6.76743 12.5839 6.76743 12.6007 6.76858C12.604 6.81858 12.6104 6.86858 12.6104 6.92092C12.6104 9.02136 12.6104 11.1214 12.6104 13.2209C12.6104 13.7209 12.329 14.0009 11.8264 14.0012C8.61103 14.0012 5.39558 14.0012 2.18003 14.0012C1.69336 14.0012 1.40436 13.7229 1.40403 13.2469C1.40203 11.1302 1.40203 9.01358 1.40403 6.89692C1.40369 6.85325 1.40969 6.81125 1.41303 6.76658ZM8.39103 12.5969C8.39103 11.8236 8.42436 11.0682 8.38136 10.3169C8.34169 9.62758 7.71469 9.10625 7.02003 9.10125C6.23636 9.09558 5.62003 9.70758 5.60636 10.5189C5.59636 11.1696 5.60369 11.8209 5.60469 12.4716C5.60725 12.5136 5.61237 12.5555 5.62003 12.5969H8.39103Z" fill="white"/>
<path d="M9.15701 3.57197C9.02201 4.8053 8.14034 5.6083 6.98101 5.5963C5.84968 5.58497 4.96834 4.7673 4.84768 3.62664C4.83434 3.69331 4.82034 3.76164 4.80801 3.82964C4.62868 4.80697 3.75168 5.5703 2.77834 5.5963C1.76668 5.62197 0.896344 4.9513 0.65801 3.95964C0.578196 3.61151 0.585179 3.2491 0.678344 2.90431C0.874677 2.12597 1.06834 1.34698 1.26468 0.568643C1.35668 0.203976 1.60934 0.00197656 1.98634 0.00197656C5.33346 0.00064323 8.68057 0.00064323 12.0277 0.00197656C12.405 0.00197656 12.6583 0.201976 12.7503 0.568643C12.9453 1.34198 13.1407 2.11497 13.3313 2.88897C13.6343 4.11664 12.8857 5.3223 11.6723 5.56564C10.547 5.79164 9.39601 4.99897 9.20568 3.86564C9.19201 3.78197 9.17868 3.69997 9.15701 3.57197Z" fill="white"/>
</svg>
