<svg t="1659194024214" class="icon" viewBox="0 0 1103 1024" version="1.1"
    xmlns="http://www.w3.org/2000/svg" p-id="3065" width="200" height="200">
    <path d="M1024 1024 78.769231 1024c-43.480615 0-78.769231-35.288615-78.769231-78.769231L0 78.769231c0-43.480615 35.288615-78.769231 78.769231-78.769231l945.230769 0c43.480615 0 78.769231 35.288615 78.769231 78.769231l0 866.461538C1102.769231 988.711385 1067.480615 1024 1024 1024zM274.589538 156.750769c-64.590769 0-118.153846 52.617846-118.153846 118.390154 0 64.669538 53.563077 117.287385 118.153846 117.287385 65.299692 0 118.153846-52.617846 118.153846-117.287385C392.743385 209.368615 339.889231 156.750769 274.589538 156.750769zM1023.448615 767.291077l-306.806154-374.153846L507.982769 647.168l73.806769 89.639385c9.767385 12.681846 9.767385 32.374154 0 44.268308-10.318769 12.288-26.860308 12.288-36.548923 0L453.632 669.853538 453.080615 669.853538 453.080615 669.144615 299.323077 481.673846 77.902769 752.088615l0 115.318154 945.467077 0L1023.369846 767.291077z" p-id="3066"></path>
</svg>