<svg width="18" height="20" viewBox="0 0 18 20" fill="currentColor" xmlns="http://www.w3.org/2000/svg">
<path d="M17.5867 12.4556C17.5867 12.4355 17.5867 12.4159 17.5843 12.3959C17.5843 12.3562 17.5843 12.3161 17.5801 12.2764C17.5801 12.2526 17.5769 12.2297 17.5755 12.205C17.5755 12.1695 17.5717 12.1336 17.5689 12.0981C17.5689 12.0729 17.5647 12.0477 17.5624 12.0225C17.5596 11.9889 17.5568 11.9549 17.5535 11.9213C17.5535 11.8956 17.5479 11.8695 17.5451 11.8438C17.5423 11.8181 17.5381 11.778 17.5339 11.7453C17.5297 11.7127 17.5269 11.6931 17.5237 11.6669C17.5204 11.6408 17.5148 11.603 17.5101 11.5708C17.5055 11.5386 17.5022 11.5185 17.498 11.4919C17.4938 11.4653 17.4877 11.4289 17.4821 11.3986L17.4681 11.3197L17.4499 11.2264C17.4448 11.1998 17.4397 11.1737 17.4341 11.1475C17.4285 11.1214 17.4205 11.0859 17.414 11.0542C17.4075 11.0225 17.4023 11.0024 17.3963 10.9763L17.3739 10.8829L17.3543 10.8059C17.3463 10.7756 17.3379 10.7453 17.3295 10.7149C17.3211 10.6846 17.3155 10.6645 17.3081 10.6393C17.3006 10.6141 17.2903 10.5787 17.281 10.5483C17.2717 10.518 17.2665 10.4989 17.2586 10.4741C17.2507 10.4494 17.239 10.413 17.2287 10.3808C17.2208 10.357 17.2133 10.3341 17.2049 10.3094C17.1942 10.2777 17.183 10.2459 17.1718 10.2161L17.148 10.1493C17.1345 10.1129 17.1205 10.077 17.1065 10.0406C17.0999 10.0238 17.0939 10.0065 17.0869 9.98927C17.0663 9.93747 17.0453 9.88567 17.0234 9.83387C17.0141 9.81193 17.0043 9.79047 16.9949 9.76853C16.9819 9.7382 16.9688 9.70833 16.9553 9.67847C16.9417 9.6486 16.9329 9.6318 16.9217 9.60567L16.8839 9.52447C16.8717 9.49973 16.8591 9.475 16.847 9.4498C16.8349 9.4246 16.8218 9.39847 16.8087 9.3728L16.7695 9.2972L16.7303 9.22347L16.6883 9.1474C16.6753 9.1236 16.6622 9.10073 16.6487 9.076C16.6351 9.05127 16.6193 9.02513 16.602 8.99993C16.5847 8.97473 16.5749 8.95327 16.5609 8.93087C16.5469 8.90847 16.5306 8.88 16.5143 8.8548C16.4979 8.8296 16.4867 8.80813 16.4727 8.78807L16.4261 8.712C16.4121 8.69053 16.3981 8.66907 16.3836 8.6476C16.3691 8.62613 16.35 8.59673 16.3327 8.57153L16.2893 8.50947C16.2716 8.48427 16.2539 8.4586 16.2357 8.4334L16.1927 8.37413L16.1358 8.29807L16.0929 8.24207C16.0733 8.2164 16.0532 8.19027 16.0331 8.16507L15.9921 8.11373L15.9272 8.03393C15.9151 8.01993 15.9029 8.00593 15.8913 7.99147L15.8185 7.90607L15.7984 7.88367C15.6979 7.76887 15.5938 7.65749 15.4862 7.54953L15.3929 7.4562L15.3663 7.43053C15.3378 7.403 15.3084 7.37593 15.2795 7.34887L15.2445 7.31667C15.2165 7.29053 15.1875 7.26533 15.1591 7.23967L15.1203 7.2056C15.0919 7.18087 15.0634 7.15613 15.0345 7.13187L14.9939 7.09733L14.9066 7.02593L14.8651 6.99233L14.7759 6.9228L14.7339 6.8906C14.7036 6.86727 14.6733 6.84393 14.6406 6.822L14.5991 6.79167L14.5057 6.72447L14.4651 6.69647L14.3667 6.633L14.3284 6.6078C14.2943 6.5854 14.2603 6.56113 14.2257 6.54153L14.1921 6.52007L14.0839 6.45333L14.0577 6.43793C14.0181 6.4146 13.9784 6.39127 13.9383 6.3684L13.9285 6.3628C13.647 6.20335 13.3552 6.06303 13.0549 5.9428H13.0488C13.0021 5.9246 12.9555 5.90687 12.9116 5.8896L12.8911 5.88167C12.8477 5.86533 12.8038 5.84993 12.7599 5.835L12.7315 5.82473L12.6036 5.7818L12.5705 5.77107L12.4435 5.73187L12.4081 5.7216C12.3661 5.709 12.3236 5.69687 12.2811 5.68567L12.2447 5.6754L12.1164 5.64227L12.0809 5.63387C12.0375 5.62313 11.9937 5.61287 11.9503 5.60307L11.9162 5.5956L11.7818 5.5676L11.7524 5.562C11.7057 5.55267 11.6591 5.54427 11.6124 5.53587L11.5914 5.5326C11.5415 5.52373 11.4911 5.5158 11.4411 5.50833H11.4355C11.0852 5.45528 10.7315 5.42799 10.3771 5.42667H7.64153C7.20193 5.42716 6.77553 5.57699 6.43224 5.85159C6.08894 6.12619 5.84912 6.50927 5.75209 6.93803C5.65505 7.3668 5.70656 7.81581 5.89817 8.21146C6.08977 8.60711 6.41011 8.92594 6.80667 9.11567H6.80993C6.83653 9.12873 6.86407 9.14087 6.8916 9.15253L6.90187 9.15673C6.92753 9.167 6.95273 9.17727 6.97887 9.1866L6.9966 9.19267C7.0204 9.20107 7.04327 9.20947 7.068 9.21647L7.09413 9.22393C7.1156 9.23047 7.13753 9.237 7.15947 9.2426L7.1926 9.25007C7.21267 9.25473 7.23226 9.25987 7.25233 9.26407L7.2934 9.27107C7.3116 9.27433 7.32933 9.27807 7.34753 9.28087L7.39747 9.28693C7.41287 9.28927 7.42827 9.2916 7.44413 9.293L7.5062 9.29767C7.51833 9.29767 7.53 9.29767 7.54213 9.30047C7.57527 9.30047 7.6084 9.30047 7.64153 9.30047H10.3771C11.2608 9.30047 12.1083 9.65152 12.7332 10.2764C13.3581 10.9013 13.7091 11.7488 13.7091 12.6325C13.7091 13.5162 13.3581 14.3637 12.7332 14.9885C12.1083 15.6134 11.2608 15.9645 10.3771 15.9645H9.4144V17.8778H7.92107V15.9645H7.64107C7.12669 15.9645 6.63338 16.1688 6.26966 16.5325C5.90594 16.8962 5.7016 17.3896 5.7016 17.9039C5.7016 18.4183 5.90594 18.9116 6.26966 19.2753C6.63338 19.6391 7.12669 19.8434 7.64107 19.8434H10.3767C14.3536 19.8467 17.5867 16.6127 17.5867 12.6362C17.5867 12.576 17.5867 12.5158 17.5867 12.4556Z" fill="currentColor"/>
<path d="M5.93772 14.3763C6.4896 14.509 7.05525 14.5759 7.62285 14.5756H10.3585C10.742 14.5756 11.117 14.4618 11.4359 14.2486C11.7548 14.0355 12.0034 13.7326 12.1501 13.3782C12.2969 13.0238 12.3353 12.6338 12.2604 12.2576C12.1855 11.8814 12.0008 11.5358 11.7295 11.2646L11.7244 11.26C11.3617 10.8986 10.8704 10.696 10.3585 10.6967H7.62285C7.59485 10.6967 7.56639 10.6967 7.53839 10.6967H7.51039H7.45485H7.42079L7.37132 10.6939L7.33539 10.6906L7.28872 10.6864L7.25139 10.6822L7.20472 10.6771L7.16645 10.672L7.12305 10.6659L7.08665 10.6533L7.04419 10.6463L7.00545 10.6388L6.96392 10.6309L6.92472 10.623L6.88459 10.6141L6.84492 10.6048L6.80572 10.595L6.76652 10.5847L6.72779 10.5744L6.68812 10.5628C6.67552 10.5595 6.66292 10.5558 6.65079 10.5516L6.61065 10.5394L6.57472 10.5273L6.53412 10.5138L6.49912 10.5012L6.45852 10.4867L6.42445 10.4736L6.38385 10.4573L6.35119 10.4442L6.30965 10.4265L6.27885 10.413L6.23685 10.3943L6.20745 10.3808L6.16452 10.3602L6.13745 10.3462L6.09359 10.3243L6.06839 10.3112L6.02172 10.2865L5.99979 10.2744L5.95312 10.2478L5.93445 10.2366L5.88499 10.2072L5.87099 10.1983L5.81779 10.1647L5.80985 10.1596C5.37095 9.87479 5.00522 9.49074 4.74223 9.03845C4.47924 8.58616 4.32637 8.07834 4.29599 7.55603C4.29599 7.56163 4.29599 7.56723 4.29599 7.57236C4.29132 7.50376 4.28899 7.43236 4.28899 7.3647C4.28998 6.4813 4.64134 5.63437 5.266 5.00972C5.89066 4.38506 6.73759 4.0337 7.62099 4.03271H7.92012V2.13758H9.41345V4.03271H10.3575C10.8648 4.03257 11.3519 3.83363 11.7142 3.47856C12.0765 3.12349 12.2852 2.64057 12.2956 2.13338C12.2956 2.12591 12.2956 2.11891 12.2956 2.11098C12.2956 2.10305 12.2956 2.10398 12.2956 2.10025V2.09325C12.2958 1.57916 12.0919 1.08601 11.7287 0.722228C11.3654 0.358448 10.8725 0.153815 10.3585 0.15332H7.62285C3.64685 0.15332 0.413321 3.38871 0.413321 7.3647C0.413321 7.3647 0.413321 7.36843 0.413321 7.3703C0.413089 7.37449 0.413089 7.3787 0.413321 7.3829C0.413321 11.1162 3.26325 14.1934 6.89999 14.5574C6.57494 14.5226 6.25318 14.4621 5.93772 14.3763Z" fill="currentColor"/>
</svg>
