<svg width="14" height="20" viewBox="0 0 14 20" fill="none" xmlns="http://www.w3.org/2000/svg">
<path d="M7.09332 0.199964C5.85649 0.183329 4.63799 0.499922 3.56569 1.11652C2.49339 1.73312 1.60684 2.62698 0.99906 3.70431C0.391283 4.78163 0.0846976 6.00269 0.111479 7.23934C0.13826 8.476 0.497422 9.68264 1.15127 10.7326L6.73492 19.653C6.76303 19.6979 6.80211 19.735 6.84847 19.7607C6.89484 19.7863 6.94698 19.7998 6.99998 19.7998C7.05299 19.7998 7.10513 19.7863 7.15149 19.7607C7.19786 19.735 7.23694 19.6979 7.26505 19.653L12.8487 10.7326C13.494 9.69605 13.8523 8.50661 13.887 7.28605C13.9216 6.06549 13.6313 4.85764 13.0458 3.78612C12.4603 2.71461 11.6006 1.8179 10.5547 1.18779C9.50879 0.557669 8.31425 0.216764 7.09332 0.199964ZM6.99998 11.96C6.0363 11.9601 5.09423 11.6744 4.29293 11.139C3.49164 10.6036 2.86711 9.84264 2.49834 8.9523C2.12958 8.06196 2.03314 7.08225 2.22123 6.13709C2.40931 5.19193 2.87347 4.32378 3.555 3.64245C4.23653 2.96111 5.1048 2.4972 6.05001 2.30939C6.99522 2.12157 7.9749 2.21829 8.86513 2.58732C9.75536 2.95634 10.5162 3.58109 11.0513 4.38254C11.5864 5.18399 11.8719 6.12615 11.8715 7.08984C11.8711 8.38161 11.3577 9.62034 10.4442 10.5336C9.53062 11.4469 8.29175 11.96 6.99998 11.96Z" fill="currentColor"/>
</svg>
