<?xml version="1.0" encoding="utf-8"?>
<!-- Generator: Adobe Illustrator 24.1.0, SVG Export Plug-In . SVG Version: 6.00 Build 0)  -->
<svg width="180" height="55" version="1.1" id="Layer_1" xmlns="http://www.w3.org/2000/svg" xmlns:xlink="http://www.w3.org/1999/xlink" x="0px" y="0px"
	 viewBox="0 0 7021 2151" fill="none" style="enable-background:new 0 0 7021 2151;" xml:space="preserve">
<g>
	<defs>
		<style>.cls-1{fill:#fff;}</style>
	</defs>
	<g class="st0">
		<path class="cls-1" d="M1075.5-1.9l931.4,537.8v1075.5l-931.4,537.7l-931.4-537.7V535.8L1075.5-1.9z"/>
		<path d="M446.4,547.1c0-1.7,1.4-3.1,3.1-3c30,1,61.2,1.5,93.6,1.5c34,0,65,0,92.8,0c2.6,0,10.6,0,24,0c13.9-0.5,28.9-0.8,44.9-0.8
			c16,0,30.9,0,44.9,0c12.2-0.4,20.5-0.7,25-0.8c1.3,0,2.4,0.8,2.8,2l302,827.9c1,2.8,5.9,2.7,6.9-0.1c2.3-6.8,5.9-16.9,10.7-30.3
			c9.3-24.9,20.9-56.9,34.8-95.8c14.4-39.5,30.7-83.6,48.7-132.5c18.1-49.3,36.4-99.5,54.9-150.4c19.1-51.4,37.6-101.6,55.7-150.4
			c18.1-49.3,34.3-93.5,48.7-132.5c14.4-39.5,26.1-71.7,34.8-96.6c7.9-21.2,12.8-34.4,14.7-39.4c0.4-1.1,1.5-1.9,2.8-1.9
			c2.8,0,7.5,0,14.2,0c8.8,0,19.1,0.3,30.9,0.8c11.9,0,24.2,0.3,37.1,0.8c13.4,0,26,0.3,37.9,0.8c11.9,0,21.9,0,30.2,0
			c8.2,0,13.4,0,15.5,0c12.9,0,26.6,0,41,0c15,0,29.7,0,44.1,0c15-0.5,29.4-0.8,43.3-0.8c12.7-0.5,24.6-0.9,35.6-1.4
			c1.7-0.1,3.1,1.3,3.1,3v71c0,1.7-1.3,3-3,3h-45c-20.1,0-35.8,1.3-47.2,3.9c-10.8,2.1-18.8,5.5-24,10.1c-5.2,4.2-8.3,9.6-9.3,16.4
			c-1,6.8-1.5,14.5-1.5,23.4v727.8c0,16.6,1,29.6,3.1,39c2.6,9.3,7,16.4,13.2,21c6.2,4.2,14.7,6.8,25.5,7.8
			c11.3,1,25.8,1.6,43.3,1.6h44.2c1.7,0,3,1.3,3,3v71.1c0,1.7-1.3,3-3,3c-17,0-33.5,0-49.6,0c-16.5-0.5-33.8-0.8-51.8-0.8
			c-17.5,0-36.4,0-56.5,0c-20.1-0.5-42.6-0.8-67.3-0.8c-19.1,0-36.1,0.3-51.1,0.8c-14.4,0-27.9,0-40.2,0c-12.4,0-24.5,0.3-36.4,0.8
			c-10.5,0-21.6,0-33.4,0c-1.7,0-3-1.3-3-3V1475c0-1.7,1.3-3,3-3h43.4c20.6,0,36.6-1.6,48-4.7c11.9-3.6,20.4-8.6,25.5-14.8
			c5.7-6.2,9-13.5,10.1-21.8c1-8.8,1.5-18.4,1.5-28.8V630.5c0-3.3-4.6-4.2-5.8-1.1l-64.6,170.2l-279.3,747.6
			c-0.4,1.2-1.6,1.9-2.8,1.9H1031c-1.2,0-2.3-0.8-2.8-1.9c-18.8-48.8-38.2-99.8-58.1-153.1c-20.1-54-40.5-108.6-61.1-163.6
			c-20.1-55.6-40.5-110.9-61.1-166c-20.6-55.6-40.7-109.6-60.3-162.1c-19.6-52.5-38.4-102.9-56.5-151.2
			c-15.9-42.5-31-82.2-45.3-119.1c-1.2-3.1-5.8-2.2-5.8,1.1v774.9c0,15.1,0.8,27,2.3,35.8c2.1,8.3,5.9,14.5,11.6,18.7
			c5.7,4.2,13.9,6.8,24.8,7.8c10.8,1,25.3,1.6,43.3,1.6h43.4c1.7,0,3,1.3,3,3v71.1c0,1.7-1.3,3-3,3c-12.3,0-23.9,0-34.9,0
			c-11.9-0.5-24.5-0.8-37.9-0.8c-12.9,0-26.8,0-41.8,0c-15-0.5-32-0.8-51.1-0.8c-20.6,0-39.7,0.3-57.2,0.8c-17.5,0-34.3,0-50.3,0
			c-15.5,0-30.7,0.3-45.6,0.8c-14,0-28.2,0-42.6,0c-1.7,0-3-1.3-3-3V1475c0-1.7,1.3-3,3-3h45c23.2,0,40.5-1.3,51.8-3.9
			c11.9-2.6,20.1-6.5,24.8-11.7c5.2-5.2,7.7-12,7.7-20.3c0.5-8.3,0.8-18.2,0.8-29.6l0.8-729.3c0-13-1.5-23.1-4.6-30.4
			c-3.1-7.8-8-13.5-14.7-17.1c-6.2-3.6-14.7-6-25.5-7c-10.3-1-23-1.6-37.9-1.6h-42.6c-1.7,0-3-1.3-3-3V547.1z" fill="black"/>
		<g>
			<path class="cls-1" d="M2307,1371.5V767h131.3l220.2,358.4l-94.1-0.9L2787.1,767h126.1v604.5h-142.5v-188.3
				c0-51.8,1.1-98.4,3.4-139.9c2.9-41.5,7.5-82.6,13.8-123.5l16.4,44.9l-167.5,259.9h-57l-164.1-258.2l16.4-46.6
				c6.3,38.6,10.7,78.3,12.9,119.2c2.9,40.3,4.3,88.4,4.3,144.2v188.3H2307z"/>
			<path class="cls-1" d="M3219.7,1379.3c-38.6,0-73.1-10.1-103.6-30.2c-29.9-20.7-53.8-48.9-71.7-84.6
				c-17.8-36.3-26.8-77.1-26.8-122.6c0-46.6,8.9-87.8,26.8-123.5c17.9-35.7,42.3-63.6,73.4-83.8c31.1-20.7,66.5-31.1,106.2-31.1
				c21.9,0,41.7,3.2,59.6,9.5c18.4,6.3,34.5,15.3,48.4,26.8c13.8,10.9,25.6,23.9,35.4,38.9c9.8,14.4,17,29.9,21.6,46.6l-28.5-3.5
				V912.9h137.3v458.6h-139.9V1261l31.1-0.9c-4.6,16.1-12.1,31.4-22.4,45.8c-10.4,14.4-23,27.1-38,38c-15,10.9-31.7,19.6-50.1,25.9
				C3260,1376.1,3240.5,1379.3,3219.7,1379.3z M3257.7,1262.7c21.3,0,39.7-4.9,55.3-14.7s27.6-23.6,36.3-41.5
				c8.6-18.4,12.9-40,12.9-64.8s-4.3-46.1-12.9-63.9c-8.6-18.4-20.7-32.5-36.3-42.3c-15.5-10.4-34-15.5-55.3-15.5
				c-20.7,0-38.9,5.2-54.4,15.5c-15,9.8-26.8,23.9-35.4,42.3c-8.6,17.8-12.9,39.1-12.9,63.9s4.3,46.3,12.9,64.8
				c8.6,17.8,20.4,31.7,35.4,41.5C3218.9,1257.8,3237,1262.7,3257.7,1262.7z"/>
			<path class="cls-1" d="M3619.7,1371.5V912.9H3751l4.3,93.3l-27.6,10.4c6.3-20.7,17.6-39.4,33.7-56.1c16.7-17.3,36.6-31.1,59.6-41.5
				c23-10.4,47.2-15.5,72.5-15.5c34.6,0,63.6,7.2,87.2,21.6c23.6,13.8,41.4,34.8,53.5,63c12.1,27.6,18.1,61.6,18.1,101.9v281.5h-139
				v-270.3c0-18.4-2.6-33.7-7.8-45.8c-5.2-12.1-13.2-21-24.2-26.8c-10.4-6.3-23.3-9.2-38.9-8.6c-12.1,0-23.3,2-33.7,6
				c-10.4,3.5-19.3,8.9-26.8,16.4c-7.5,6.9-13.5,15-18.1,24.2c-4,9.2-6.1,19.3-6.1,30.2v274.6h-68.2c-16.1,0-29.9,0-41.4,0
				S3627.2,1371.5,3619.7,1371.5z"/>
			<path class="cls-1" d="M4337.1,1379.3c-38.6,0-73.1-10.1-103.6-30.2c-29.9-20.7-53.8-48.9-71.7-84.6
				c-17.8-36.3-26.8-77.1-26.8-122.6c0-46.6,8.9-87.8,26.8-123.5c17.9-35.7,42.3-63.6,73.4-83.8c31.1-20.7,66.5-31.1,106.2-31.1
				c21.9,0,41.7,3.2,59.6,9.5c18.4,6.3,34.5,15.3,48.4,26.8c13.8,10.9,25.6,23.9,35.4,38.9c9.8,14.4,17,29.9,21.6,46.6l-28.5-3.5
				V912.9h137.3v458.6h-139.9V1261l31.1-0.9c-4.6,16.1-12.1,31.4-22.5,45.8c-10.4,14.4-23,27.1-38,38c-15,10.9-31.7,19.6-50.1,25.9
				C4377.5,1376.1,4357.9,1379.3,4337.1,1379.3z M4375.1,1262.7c21.3,0,39.7-4.9,55.3-14.7c15.5-9.8,27.6-23.6,36.3-41.5
				c8.6-18.4,13-40,13-64.8s-4.3-46.1-13-63.9c-8.6-18.4-20.7-32.5-36.3-42.3c-15.5-10.4-34-15.5-55.3-15.5
				c-20.7,0-38.9,5.2-54.4,15.5c-15,9.8-26.8,23.9-35.4,42.3c-8.6,17.8-13,39.1-13,63.9s4.3,46.3,13,64.8
				c8.6,17.8,20.4,31.7,35.4,41.5C4336.3,1257.8,4354.4,1262.7,4375.1,1262.7z"/>
			<path class="cls-1" d="M6830.5,1380.1c-44.9,0-84.6-7.2-119.2-21.6c-34-14.4-61-33.7-81.2-57.9l83.8-72.5
				c17.8,17.8,38,31.1,60.4,39.7c22.5,8.1,43.8,12.1,63.9,12.1c8.1,0,15.2-0.9,21.6-2.6c6.3-1.7,11.5-4,15.5-6.9
				c4.6-3.4,8.1-7.2,10.4-11.2c2.3-4.6,3.5-9.8,3.5-15.6c0-11.5-5.2-20.4-15.5-26.8c-5.2-2.9-13.8-6.3-25.9-10.4
				c-12.1-4-27.6-8.6-46.6-13.8c-27.1-6.9-50.7-15-70.8-24.2c-19.6-9.8-35.7-21-48.4-33.7c-11.5-12.1-20.4-25.3-26.8-39.7
				c-6.3-15-9.5-31.7-9.5-50.1c0-21.3,4.9-40.6,14.7-57.9c10.4-17.3,23.9-32.2,40.6-44.9c17.3-12.7,36.8-22.2,58.7-28.5
				c22.4-6.9,45.5-10.4,69.1-10.4c25.3,0,49.5,2.9,72.5,8.6c23,5.8,44.3,13.8,63.9,24.2c20.1,10.4,38,22.7,53.5,37.1l-72.5,81.2
				c-10.4-9.8-22.2-18.4-35.4-25.9c-12.7-8.1-25.9-14.4-39.7-19c-13.8-4.6-26.5-6.9-38-6.9c-8.6,0-16.4,0.9-23.3,2.6
				c-6.3,1.2-11.8,3.5-16.4,6.9c-4.6,2.9-8.1,6.6-10.4,11.2c-2.3,4-3.5,8.9-3.5,14.7c0,5.8,1.4,11.2,4.3,16.4
				c3.5,5.2,8.1,9.5,13.8,13c5.8,3.5,15,7.5,27.6,12.1c12.7,4,29.9,9.2,51.8,15.5c27.1,7.5,50.4,15.8,70,25
				c19.6,9.2,35.1,20.2,46.6,32.8c9.2,9.8,16.1,21.3,20.7,34.5c4.6,12.7,6.9,26.5,6.9,41.5c0,29.4-8.3,55.6-25,78.6
				c-16.1,22.5-38.6,40.3-67.4,53.5C6900.2,1373.8,6867.4,1380.1,6830.5,1380.1z"/>
			<path class="cls-1" d="M5126.6,1371.5V767h146.8v604.5H5126.6z M4751.8,1371.5V767h146.8v604.5H4751.8z M4808.8,1135.7l0.9-131.3
				h394.6v131.3H4808.8z"/>
			<path class="cls-1" d="M5679.5,1376.7c-50.1,0-94.7-10.1-133.8-30.2c-39.2-20.7-70-48.9-92.4-84.6c-21.9-35.7-32.8-76.6-32.8-122.6
				V767H5569v364.4c0,21.9,4.9,41.7,14.7,59.6c9.8,17.3,23,31.1,39.7,41.4c16.7,9.8,35.4,14.7,56.1,14.7c21.9,0,41.2-4.9,57.9-14.7
				c17.3-10.4,31.1-24.2,41.4-41.4c10.4-17.8,15.5-37.7,15.5-59.6V767h143.4v372.2c0,46.1-11.2,86.9-33.7,122.6
				c-21.9,35.7-52.4,63.9-91.5,84.6C5773.4,1366.6,5729.1,1376.7,5679.5,1376.7z"/>
			<path class="cls-1" d="M6085.1,1371.5V767H6352c41.4,0,76.6,6,105.3,18.1c28.8,11.5,50.4,28.5,64.8,51c15,21.9,22.5,48.4,22.5,79.4
				c0,34.5-8.6,63.6-25.9,87.2c-16.7,23.6-41.2,39.4-73.4,47.5l-1.7-16.4c27.1,5.8,50.4,15.8,70,30.2c20.1,14.4,35.7,32.2,46.6,53.5
				c10.9,20.7,16.4,44.3,16.4,70.8c0,30.5-5.2,57.3-15.5,80.3c-10.4,22.5-25.3,41.5-44.9,57c-19.6,15.5-42.6,27.1-69.1,34.5
				c-25.9,7.5-54.7,11.2-86.4,11.2H6085.1z M6223.3,1248.9h132.1c16.1,0,29.6-2.6,40.6-7.8c11.5-5.2,20.4-12.7,26.8-22.5
				c6.3-10.4,9.5-22.7,9.5-37.1c0-13.2-3.4-24.5-10.4-33.7c-6.3-9.2-15.5-16.1-27.6-20.7c-12.1-5.2-26.5-7.8-43.2-7.8h-127.8V1248.9
				z M6223.3,1009.7h107.9c15,0,27.6-2.3,38-6.9c10.9-5.2,19-12.1,24.2-20.7c5.8-9.2,8.6-20.1,8.6-32.8c0-18.4-6.3-32.8-19-43.2
				c-12.7-10.9-31.7-16.4-57-16.4h-102.8V1009.7z"/>
		</g>
	</g>
</g>
</svg>
