<svg width="7021" height="2151" viewBox="0 0 7021 2151" fill="none"
    xmlns="http://www.w3.org/2000/svg">
    <g clip-path="url(#clip0_22_99)">
        <path d="M1075.5 0L2006.91 537.75V1613.25L1075.5 2151L144.09 1613.25V537.75L1075.5 0Z" fill="#F6A500"/>
        <path d="M446.416 547.091C446.416 545.394 447.821 544.036 449.516 544.09C479.513 545.061 510.715 545.547 543.122 545.547C577.162 545.547 608.108 545.547 635.96 545.547C638.539 545.547 646.533 545.547 659.943 545.547C673.869 545.027 688.826 544.767 704.815 544.767C720.803 544.767 735.761 544.767 749.686 544.767C761.862 544.329 770.189 544.076 774.665 544.007C775.926 543.988 777.051 544.776 777.483 545.96L1079.46 1373.87C1080.5 1376.72 1085.38 1376.61 1086.36 1373.73C1088.68 1366.91 1092.25 1356.8 1097.05 1343.43C1106.34 1318.49 1117.94 1286.55 1131.87 1247.59C1146.31 1208.11 1162.56 1163.95 1180.61 1115.13C1198.66 1065.78 1216.97 1015.65 1235.54 964.745C1254.62 913.319 1273.19 863.192 1291.24 814.363C1309.29 765.015 1325.54 720.862 1339.98 681.903C1354.42 642.424 1366.03 610.218 1374.8 585.285C1382.7 564.05 1387.62 550.916 1389.54 545.882C1389.97 544.733 1391.07 543.988 1392.3 543.988C1395.09 543.988 1399.83 543.988 1406.51 543.988C1415.28 543.988 1425.6 544.248 1437.46 544.767C1449.32 544.767 1461.7 545.027 1474.6 545.547C1488.01 545.547 1500.64 545.806 1512.5 546.326C1524.37 546.326 1534.42 546.326 1542.68 546.326C1550.93 546.326 1556.09 546.326 1558.15 546.326C1571.04 546.326 1584.71 546.326 1599.15 546.326C1614.11 546.326 1628.81 546.326 1643.25 546.326C1658.21 545.806 1672.65 545.547 1686.58 545.547C1699.29 545.073 1711.14 544.598 1722.13 544.124C1723.83 544.051 1725.26 545.414 1725.26 547.123V618.127C1725.26 619.784 1723.92 621.127 1722.26 621.127H1677.29C1657.18 621.127 1641.45 622.426 1630.1 625.023C1619.27 627.101 1611.27 630.477 1606.12 635.152C1600.96 639.308 1597.86 644.762 1596.83 651.515C1595.8 658.268 1595.29 666.06 1595.29 674.89V1402.64C1595.29 1419.27 1596.32 1432.25 1598.38 1441.6C1600.96 1450.95 1605.34 1457.96 1611.53 1462.64C1617.72 1466.8 1626.23 1469.39 1637.06 1470.43C1648.41 1471.47 1662.85 1471.99 1680.39 1471.99H1724.58C1726.24 1471.99 1727.58 1473.33 1727.58 1474.99V1546.13C1727.58 1547.79 1726.24 1549.13 1724.58 1549.13C1707.58 1549.13 1691.05 1549.13 1674.97 1549.13C1658.47 1548.61 1641.19 1548.35 1623.14 1548.35C1605.6 1548.35 1586.78 1548.35 1566.66 1548.35C1546.55 1547.83 1524.11 1547.57 1499.35 1547.57C1480.27 1547.57 1463.25 1547.83 1448.29 1548.35C1433.85 1548.35 1420.44 1548.35 1408.06 1548.35C1395.68 1548.35 1383.56 1548.61 1371.7 1549.13C1361.24 1549.13 1350.12 1549.13 1338.34 1549.13C1336.68 1549.13 1335.34 1547.79 1335.34 1546.13V1474.99C1335.34 1473.33 1336.68 1471.99 1338.34 1471.99H1381.76C1402.39 1471.99 1418.38 1470.43 1429.72 1467.31C1441.59 1463.68 1450.1 1458.74 1455.25 1452.51C1460.93 1446.28 1464.28 1439 1465.31 1430.69C1466.34 1421.86 1466.86 1412.25 1466.86 1401.86V630.469C1466.86 627.136 1462.24 626.288 1461.05 629.404L1396.46 799.559L1117.12 1547.18C1116.69 1548.35 1115.57 1549.13 1114.31 1549.13H1031.03C1029.79 1549.13 1028.68 1548.37 1028.23 1547.21C1009.38 1498.44 990.031 1447.4 970.176 1394.07C950.061 1340.05 929.689 1285.51 909.058 1230.44C888.943 1174.86 868.57 1119.54 847.94 1064.48C827.309 1008.9 807.194 954.875 787.595 902.41C767.996 849.946 749.17 799.559 731.119 751.25C715.226 708.718 700.132 669.004 685.838 632.109C684.639 629.015 680.058 629.876 680.058 633.194V1408.1C680.058 1423.16 680.831 1435.11 682.379 1443.94C684.442 1452.25 688.31 1458.48 693.983 1462.64C699.657 1466.8 707.909 1469.39 718.74 1470.43C729.571 1471.47 744.013 1471.99 762.065 1471.99H805.484C807.14 1471.99 808.484 1473.33 808.484 1474.99V1546.13C808.484 1547.79 807.14 1549.13 805.483 1549.13C793.185 1549.13 781.549 1549.13 770.575 1549.13C758.712 1548.61 746.076 1548.35 732.666 1548.35C719.772 1548.35 705.846 1548.35 690.889 1548.35C675.932 1547.83 658.911 1547.57 639.828 1547.57C619.197 1547.57 600.114 1547.83 582.578 1548.35C565.042 1548.35 548.279 1548.35 532.291 1548.35C516.818 1548.35 501.603 1548.61 486.645 1549.13C472.656 1549.13 458.441 1549.13 444 1549.13C442.343 1549.13 441 1547.79 441 1546.13V1474.99C441 1473.33 442.343 1471.99 444 1471.99H488.966C512.176 1471.99 529.454 1470.69 540.801 1468.09C552.663 1465.5 560.916 1461.6 565.558 1456.41C570.715 1451.21 573.294 1444.46 573.294 1436.15C573.81 1427.84 574.068 1417.97 574.068 1406.54L574.841 677.228C574.841 664.241 573.294 654.112 570.2 646.84C567.105 639.048 562.205 633.334 555.5 629.698C549.311 626.062 540.801 623.724 529.97 622.685C519.654 621.646 507.018 621.127 492.061 621.127H449.416C447.759 621.127 446.416 619.784 446.416 618.127V547.091Z" fill="black"/>
        <path d="M2307 1148.5V544H2438.26L2658.47 902.382L2564.34 901.519L2787.15 544H2913.23V1148.5H2770.74V960.241C2770.74 908.427 2771.89 861.794 2774.19 820.343C2777.07 778.891 2781.68 737.728 2788.01 696.852L2804.42 741.758L2636.88 1001.69H2579.89L2415.81 743.485L2432.22 696.852C2438.55 735.425 2442.87 775.149 2445.17 816.025C2448.05 856.325 2449.49 904.397 2449.49 960.241V1148.5H2307Z" fill="#F6A500"/>
        <path d="M3219.73 1156.27C3181.16 1156.27 3146.62 1146.2 3116.11 1126.05C3086.17 1105.32 3062.28 1077.11 3044.43 1041.42C3026.58 1005.15 3017.66 964.271 3017.66 918.79C3017.66 872.157 3026.58 830.993 3044.43 795.299C3062.28 759.605 3086.74 731.683 3117.83 711.533C3148.92 690.807 3184.33 680.444 3224.05 680.444C3245.93 680.444 3265.79 683.611 3283.64 689.944C3302.06 696.276 3318.18 705.2 3332 716.714C3345.82 727.653 3357.62 740.606 3367.4 755.575C3377.19 769.968 3384.39 785.512 3388.99 802.208L3360.5 798.753V689.944H3497.8V1148.5H3357.91V1037.96L3388.99 1037.1C3384.39 1053.22 3376.9 1068.48 3366.54 1082.87C3356.18 1097.26 3343.51 1109.93 3328.54 1120.87C3313.58 1131.8 3296.88 1140.44 3278.46 1146.77C3260.03 1153.11 3240.46 1156.27 3219.73 1156.27ZM3257.73 1039.69C3279.03 1039.69 3297.46 1034.8 3313 1025.01C3328.54 1015.22 3340.63 1001.4 3349.27 983.558C3357.91 965.135 3362.22 943.546 3362.22 918.79C3362.22 894.034 3357.91 872.733 3349.27 854.886C3340.63 836.463 3328.54 822.358 3313 812.571C3297.46 802.208 3279.03 797.026 3257.73 797.026C3237.01 797.026 3218.87 802.208 3203.33 812.571C3188.36 822.358 3176.56 836.463 3167.92 854.886C3159.28 872.733 3154.97 894.034 3154.97 918.79C3154.97 943.546 3159.28 965.135 3167.92 983.558C3176.56 1001.4 3188.36 1015.22 3203.33 1025.01C3218.87 1034.8 3237.01 1039.69 3257.73 1039.69Z" fill="#F6A500"/>
        <path d="M3619.72 1148.5V689.944H3750.99L3755.3 783.209L3727.67 793.572C3734 772.846 3745.23 754.136 3761.35 737.44C3778.04 720.169 3797.91 706.351 3820.93 695.989C3843.96 685.626 3868.14 680.444 3893.47 680.444C3928.02 680.444 3957.09 687.641 3980.7 702.034C4004.3 715.851 4022.15 736.864 4034.24 765.074C4046.33 792.708 4052.37 826.676 4052.37 866.976V1148.5H3913.34V878.202C3913.34 859.779 3910.75 844.523 3905.56 832.433C3900.38 820.343 3892.32 811.419 3881.38 805.662C3871.02 799.329 3858.07 796.451 3842.52 797.026C3830.43 797.026 3819.21 799.041 3808.84 803.071C3798.48 806.526 3789.56 811.995 3782.07 819.479C3774.59 826.388 3768.54 834.448 3763.94 843.659C3759.91 852.871 3757.89 862.946 3757.89 873.884V1148.5H3689.67C3673.55 1148.5 3659.73 1148.5 3648.22 1148.5C3636.71 1148.5 3627.21 1148.5 3619.72 1148.5Z" fill="#F6A500"/>
        <path d="M4337.15 1156.27C4298.57 1156.27 4264.03 1146.2 4233.52 1126.05C4203.58 1105.32 4179.69 1077.11 4161.84 1041.42C4144 1005.15 4135.07 964.271 4135.07 918.79C4135.07 872.157 4144 830.993 4161.84 795.299C4179.69 759.605 4204.16 731.683 4235.25 711.533C4266.33 690.807 4301.74 680.444 4341.47 680.444C4363.34 680.444 4383.21 683.611 4401.05 689.944C4419.48 696.276 4435.59 705.2 4449.41 716.714C4463.23 727.653 4475.03 740.606 4484.82 755.575C4494.61 769.968 4501.8 785.512 4506.41 802.208L4477.91 798.753V689.944H4615.22V1148.5H4475.32V1037.96L4506.41 1037.1C4501.8 1053.22 4494.32 1068.48 4483.96 1082.87C4473.59 1097.26 4460.93 1109.93 4445.96 1120.87C4430.99 1131.8 4414.29 1140.44 4395.87 1146.77C4377.45 1153.11 4357.87 1156.27 4337.15 1156.27ZM4375.15 1039.69C4396.45 1039.69 4414.87 1034.8 4430.41 1025.01C4445.96 1015.22 4458.05 1001.4 4466.68 983.558C4475.32 965.135 4479.64 943.546 4479.64 918.79C4479.64 894.034 4475.32 872.733 4466.68 854.886C4458.05 836.463 4445.96 822.358 4430.41 812.571C4414.87 802.208 4396.45 797.026 4375.15 797.026C4354.42 797.026 4336.28 802.208 4320.74 812.571C4305.77 822.358 4293.97 836.463 4285.33 854.886C4276.7 872.733 4272.38 894.034 4272.38 918.79C4272.38 943.546 4276.7 965.135 4285.33 983.558C4293.97 1001.4 4305.77 1015.22 4320.74 1025.01C4336.28 1034.8 4354.42 1039.69 4375.15 1039.69Z" fill="#F6A500"/>
        <path d="M6830.53 1157.14C6785.63 1157.14 6745.9 1149.94 6711.36 1135.55C6677.39 1121.15 6650.34 1101.87 6630.19 1077.69L6713.95 1005.15C6731.8 1022.99 6751.95 1036.24 6774.4 1044.87C6796.85 1052.93 6818.16 1056.96 6838.31 1056.96C6846.37 1056.96 6853.56 1056.1 6859.9 1054.37C6866.23 1052.64 6871.41 1050.34 6875.44 1047.46C6880.05 1044.01 6883.5 1040.27 6885.8 1036.24C6888.11 1031.63 6889.26 1026.45 6889.26 1020.69C6889.26 1009.18 6884.08 1000.25 6873.71 993.921C6868.53 991.042 6859.9 987.588 6847.81 983.558C6835.72 979.528 6820.17 974.922 6801.17 969.741C6774.11 962.832 6750.51 954.772 6730.36 945.561C6710.79 935.773 6694.67 924.547 6682 911.881C6670.49 899.791 6661.56 886.55 6655.23 872.157C6648.9 857.189 6645.73 840.493 6645.73 822.07C6645.73 800.768 6650.62 781.482 6660.41 764.211C6670.77 746.939 6684.3 731.971 6701 719.305C6718.27 706.639 6737.84 697.14 6759.72 690.807C6782.17 683.899 6805.2 680.444 6828.81 680.444C6854.14 680.444 6878.32 683.323 6901.35 689.08C6924.38 694.837 6945.68 702.897 6965.25 713.26C6985.4 723.623 7003.25 736.001 7018.79 750.394L6946.25 831.569C6935.89 821.782 6924.09 813.146 6910.85 805.662C6898.18 797.602 6884.94 791.269 6871.12 786.664C6857.31 782.058 6844.64 779.755 6833.12 779.755C6824.49 779.755 6816.72 780.619 6809.81 782.346C6803.48 783.497 6798.01 785.8 6793.4 789.254C6788.79 792.133 6785.34 795.875 6783.04 800.481C6780.73 804.511 6779.58 809.404 6779.58 815.161C6779.58 820.918 6781.02 826.388 6783.9 831.569C6787.36 836.751 6791.96 841.068 6797.72 844.523C6803.48 847.977 6812.69 852.007 6825.35 856.613C6838.02 860.643 6855.29 865.824 6877.17 872.157C6904.23 879.641 6927.54 887.989 6947.12 897.201C6966.69 906.412 6982.24 917.351 6993.75 930.016C7002.96 939.803 7009.87 951.318 7014.48 964.559C7019.08 977.225 7021.38 991.042 7021.38 1006.01C7021.38 1035.37 7013.04 1061.57 6996.34 1084.6C6980.22 1107.05 6957.77 1124.9 6928.98 1138.14C6900.2 1150.8 6867.38 1157.14 6830.53 1157.14Z" fill="#F6A500"/>
        <path d="M5126.61 1148.5V544H5273.41V1148.5H5126.61ZM4751.82 1148.5V544H4898.62V1148.5H4751.82ZM4808.81 912.745L4809.68 781.482H5204.33V912.745H4808.81Z" fill="#F6A500"/>
        <path d="M5679.55 1153.68C5629.46 1153.68 5584.84 1143.61 5545.7 1123.46C5506.55 1102.73 5475.75 1074.52 5453.29 1038.83C5431.42 1003.13 5420.48 962.256 5420.48 916.199V544H5569.01V908.427C5569.01 930.304 5573.91 950.166 5583.69 968.013C5593.48 985.285 5606.72 999.102 5623.42 1009.46C5640.11 1019.25 5658.82 1024.15 5679.55 1024.15C5701.43 1024.15 5720.71 1019.25 5737.41 1009.46C5754.68 999.102 5768.5 985.285 5778.86 968.013C5789.22 950.166 5794.4 930.304 5794.4 908.427V544H5937.76V916.199C5937.76 962.256 5926.53 1003.13 5904.08 1038.83C5882.2 1074.52 5851.69 1102.73 5812.54 1123.46C5773.39 1143.61 5729.06 1153.68 5679.55 1153.68Z" fill="#F6A500"/>
        <path d="M6085.12 1148.5V544H6351.97C6393.42 544 6428.54 550.045 6457.32 562.135C6486.11 573.649 6507.7 590.633 6522.09 613.086C6537.06 634.963 6544.54 661.446 6544.54 692.534C6544.54 727.077 6535.91 756.151 6518.64 779.755C6501.94 803.359 6477.47 819.191 6445.23 827.251L6443.51 810.844C6470.56 816.601 6493.88 826.676 6513.46 841.068C6533.61 855.461 6549.15 873.308 6560.09 894.61C6571.03 915.336 6576.5 938.94 6576.5 965.423C6576.5 995.936 6571.31 1022.71 6560.95 1045.73C6550.59 1068.19 6535.62 1087.19 6516.05 1102.73C6496.47 1118.27 6473.44 1129.79 6446.96 1137.27C6421.05 1144.76 6392.27 1148.5 6360.6 1148.5H6085.12ZM6223.3 1025.87H6355.42C6371.54 1025.87 6385.07 1023.28 6396.01 1018.1C6407.52 1012.92 6416.45 1005.43 6422.78 995.648C6429.11 985.285 6432.28 972.907 6432.28 958.514C6432.28 945.273 6428.83 934.046 6421.92 924.835C6415.58 915.623 6406.37 908.715 6394.28 904.109C6382.19 898.928 6367.8 896.337 6351.1 896.337H6223.3V1025.87ZM6223.3 786.664H6331.24C6346.21 786.664 6358.88 784.361 6369.24 779.755C6380.18 774.574 6388.24 767.665 6393.42 759.029C6399.18 749.818 6402.05 738.879 6402.05 726.214C6402.05 707.791 6395.72 693.398 6383.06 683.035C6370.39 672.096 6351.39 666.627 6326.06 666.627H6223.3V786.664Z" fill="#F6A500"/>
        <path d="M4202.18 1399.64C4200.65 1386.68 4194.42 1376.62 4183.51 1369.47C4172.61 1362.31 4159.22 1358.73 4143.37 1358.73C4131.78 1358.73 4121.64 1360.6 4112.95 1364.35C4104.34 1368.1 4097.61 1373.26 4092.75 1379.82C4087.97 1386.38 4085.59 1393.84 4085.59 1402.19C4085.59 1409.18 4087.25 1415.19 4090.57 1420.22C4093.98 1425.16 4098.33 1429.3 4103.61 1432.62C4108.9 1435.86 4114.44 1438.54 4120.23 1440.67C4126.03 1442.72 4131.36 1444.38 4136.21 1445.66L4162.8 1452.82C4169.62 1454.61 4177.21 1457.08 4185.56 1460.23C4194 1463.39 4202.05 1467.69 4209.72 1473.14C4217.48 1478.51 4223.87 1485.42 4228.9 1493.86C4233.93 1502.29 4236.44 1512.65 4236.44 1524.92C4236.44 1539.07 4232.73 1551.85 4225.32 1563.27C4217.99 1574.69 4207.25 1583.77 4193.1 1590.5C4179.04 1597.24 4161.95 1600.6 4141.84 1600.6C4123.09 1600.6 4106.85 1597.58 4093.13 1591.53C4079.49 1585.47 4068.76 1577.04 4060.92 1566.21C4053.16 1555.39 4048.77 1542.82 4047.75 1528.5H4080.47C4081.33 1538.39 4084.65 1546.57 4090.45 1553.05C4096.33 1559.44 4103.74 1564.21 4112.69 1567.36C4121.72 1570.43 4131.44 1571.97 4141.84 1571.97C4153.94 1571.97 4164.81 1570.01 4174.44 1566.09C4184.07 1562.08 4191.7 1556.54 4197.32 1549.47C4202.95 1542.31 4205.76 1533.95 4205.76 1524.41C4205.76 1515.72 4203.33 1508.64 4198.47 1503.19C4193.61 1497.73 4187.22 1493.3 4179.3 1489.89C4171.37 1486.48 4162.8 1483.5 4153.6 1480.94L4121.38 1471.74C4100.93 1465.86 4084.74 1457.46 4072.8 1446.55C4060.87 1435.64 4054.91 1421.37 4054.91 1403.73C4054.91 1389.07 4058.87 1376.28 4066.8 1365.38C4074.81 1354.38 4085.55 1345.86 4099.01 1339.81C4112.56 1333.67 4127.69 1330.6 4144.4 1330.6C4161.27 1330.6 4176.27 1333.63 4189.4 1339.68C4202.52 1345.64 4212.92 1353.83 4220.59 1364.22C4228.34 1374.62 4232.44 1386.43 4232.86 1399.64H4202.18ZM4369.87 1399.64V1425.2H4268.11V1399.64H4369.87ZM4297.77 1352.59H4327.94V1539.75C4327.94 1548.27 4329.18 1554.66 4331.65 1558.93C4334.21 1563.1 4337.45 1565.91 4341.37 1567.36C4345.37 1568.73 4349.59 1569.41 4354.02 1569.41C4357.35 1569.41 4360.07 1569.24 4362.2 1568.9C4364.33 1568.47 4366.04 1568.13 4367.32 1567.88L4373.45 1594.98C4371.41 1595.74 4368.55 1596.51 4364.89 1597.28C4361.22 1598.13 4356.58 1598.56 4350.95 1598.56C4342.43 1598.56 4334.08 1596.72 4325.9 1593.06C4317.8 1589.39 4311.07 1583.81 4305.7 1576.31C4300.41 1568.81 4297.77 1559.35 4297.77 1547.93V1352.59ZM4473.04 1600.6C4460.6 1600.6 4449.31 1598.26 4439.16 1593.57C4429.02 1588.8 4420.97 1581.94 4415 1572.99C4409.04 1563.95 4406.05 1553.05 4406.05 1540.26C4406.05 1529.01 4408.27 1519.89 4412.7 1512.9C4417.13 1505.83 4423.06 1500.29 4430.47 1496.28C4437.89 1492.28 4446.07 1489.3 4455.02 1487.34C4464.05 1485.29 4473.13 1483.67 4482.25 1482.48C4494.18 1480.94 4503.85 1479.79 4511.27 1479.03C4518.77 1478.17 4524.22 1476.77 4527.63 1474.81C4531.12 1472.85 4532.87 1469.44 4532.87 1464.58V1463.56C4532.87 1450.94 4529.42 1441.14 4522.52 1434.15C4515.7 1427.16 4505.34 1423.67 4491.45 1423.67C4477.05 1423.67 4465.76 1426.82 4457.57 1433.13C4449.39 1439.44 4443.64 1446.17 4440.31 1453.33L4411.68 1443.1C4416.79 1431.17 4423.61 1421.88 4432.13 1415.23C4440.74 1408.5 4450.12 1403.81 4460.26 1401.17C4470.49 1398.44 4480.54 1397.08 4490.43 1397.08C4496.74 1397.08 4503.98 1397.85 4512.16 1399.38C4520.43 1400.83 4528.4 1403.86 4536.07 1408.46C4543.82 1413.06 4550.26 1420.01 4555.37 1429.3C4560.49 1438.59 4563.04 1451.03 4563.04 1466.62V1596H4532.87V1569.41H4531.34C4529.29 1573.67 4525.88 1578.23 4521.11 1583.09C4516.34 1587.95 4509.99 1592.08 4502.06 1595.49C4494.14 1598.9 4484.46 1600.6 4473.04 1600.6ZM4477.64 1573.5C4489.58 1573.5 4499.63 1571.16 4507.81 1566.47C4516.08 1561.78 4522.3 1555.73 4526.48 1548.32C4530.74 1540.9 4532.87 1533.1 4532.87 1524.92V1497.31C4531.59 1498.84 4528.78 1500.25 4524.43 1501.53C4520.17 1502.72 4515.23 1503.78 4509.6 1504.72C4504.06 1505.57 4498.65 1506.34 4493.37 1507.02C4488.17 1507.62 4483.95 1508.13 4480.71 1508.56C4472.87 1509.58 4465.54 1511.24 4458.72 1513.54C4451.99 1515.76 4446.54 1519.12 4442.36 1523.64C4438.27 1528.07 4436.22 1534.12 4436.22 1541.8C4436.22 1552.28 4440.1 1560.2 4447.86 1565.57C4455.7 1570.86 4465.63 1573.5 4477.64 1573.5ZM4646.23 1524.41L4645.72 1487.08H4651.86L4737.77 1399.64H4775.1L4683.56 1492.19H4681.01L4646.23 1524.41ZM4618.11 1596V1334.18H4648.28V1596H4618.11ZM4742.88 1596L4666.18 1498.84L4687.66 1477.88L4781.23 1596H4742.88ZM4813.93 1596V1399.64H4844.1V1596H4813.93ZM4829.27 1366.91C4823.39 1366.91 4818.32 1364.91 4814.06 1360.9C4809.88 1356.89 4807.79 1352.08 4807.79 1346.45C4807.79 1340.83 4809.88 1336.01 4814.06 1332.01C4818.32 1328 4823.39 1326 4829.27 1326C4835.15 1326 4840.18 1328 4844.36 1332.01C4848.62 1336.01 4850.75 1340.83 4850.75 1346.45C4850.75 1352.08 4848.62 1356.89 4844.36 1360.9C4840.18 1364.91 4835.15 1366.91 4829.27 1366.91ZM4929.53 1477.88V1596H4899.36V1399.64H4928.51V1430.32H4931.06C4935.67 1420.35 4942.66 1412.34 4952.03 1406.28C4961.41 1400.15 4973.51 1397.08 4988.34 1397.08C5001.63 1397.08 5013.27 1399.81 5023.24 1405.26C5033.21 1410.63 5040.96 1418.81 5046.5 1429.81C5052.04 1440.72 5054.81 1454.52 5054.81 1471.23V1596H5024.64V1473.27C5024.64 1457.85 5020.64 1445.83 5012.63 1437.22C5004.62 1428.53 4993.62 1424.18 4979.64 1424.18C4970.01 1424.18 4961.41 1426.27 4953.82 1430.45C4946.32 1434.62 4940.4 1440.72 4936.05 1448.73C4931.7 1456.74 4929.53 1466.45 4929.53 1477.88ZM5189.21 1673.73C5174.63 1673.73 5162.1 1671.85 5151.62 1668.1C5141.14 1664.44 5132.4 1659.58 5125.41 1653.53C5118.51 1647.56 5113.01 1641.17 5108.92 1634.35L5132.96 1617.48C5135.68 1621.06 5139.14 1625.15 5143.31 1629.75C5147.49 1634.44 5153.2 1638.49 5160.44 1641.89C5167.77 1645.39 5177.36 1647.14 5189.21 1647.14C5205.06 1647.14 5218.14 1643.3 5228.45 1635.63C5238.77 1627.96 5243.92 1615.94 5243.92 1599.58V1559.69H5241.37C5239.15 1563.27 5236 1567.7 5231.91 1572.99C5227.9 1578.19 5222.1 1582.83 5214.52 1586.92C5207.02 1590.93 5196.88 1592.93 5184.09 1592.93C5168.24 1592.93 5154.01 1589.18 5141.39 1581.68C5128.87 1574.18 5118.94 1563.27 5111.61 1548.95C5104.36 1534.64 5100.74 1517.25 5100.74 1496.8C5100.74 1476.68 5104.28 1459.17 5111.35 1444.25C5118.43 1429.25 5128.27 1417.66 5140.88 1409.48C5153.5 1401.21 5168.07 1397.08 5184.6 1397.08C5197.39 1397.08 5207.53 1399.21 5215.03 1403.47C5222.62 1407.65 5228.41 1412.42 5232.42 1417.79C5236.51 1423.07 5239.66 1427.42 5241.88 1430.83H5244.95V1399.64H5274.09V1601.62C5274.09 1618.5 5270.26 1632.22 5262.59 1642.79C5255 1653.44 5244.78 1661.24 5231.91 1666.18C5219.12 1671.21 5204.89 1673.73 5189.21 1673.73ZM5188.18 1565.83C5200.29 1565.83 5210.51 1563.06 5218.87 1557.52C5227.22 1551.98 5233.57 1544.01 5237.91 1533.61C5242.26 1523.22 5244.43 1510.77 5244.43 1496.28C5244.43 1482.14 5242.3 1469.65 5238.04 1458.83C5233.78 1448 5227.47 1439.52 5219.12 1433.39C5210.77 1427.25 5200.46 1424.18 5188.18 1424.18C5175.4 1424.18 5164.75 1427.42 5156.22 1433.9C5147.79 1440.37 5141.44 1449.07 5137.18 1459.98C5133 1470.89 5130.91 1482.99 5130.91 1496.28C5130.91 1509.92 5133.04 1521.98 5137.3 1532.46C5141.65 1542.86 5148.04 1551.04 5156.48 1557.01C5165 1562.89 5175.57 1565.83 5188.18 1565.83Z" fill="#F6A500"/>
    </g>
    <defs>
        <clipPath id="clip0_22_99">
            <rect width="7021" height="2151" fill="white"/>
        </clipPath>
    </defs>
</svg>
    