<svg id="Layer_1" width="180" height="40" data-name="Layer 1" xmlns="http://www.w3.org/2000/svg" viewBox="0 0 434.38 91.22">
    <defs>
        <style>.cls-1{fill:#fff;}</style>
    </defs>
    <path class="cls-1" d="M19.18.1a19.84,19.84,0,0,1,7,1.38,22.45,22.45,0,0,1,6,3.58,16.77,16.77,0,0,1,5.92-3.72A19.2,19.2,0,0,1,44.85.1a18.29,18.29,0,0,1,7.54,1.57,20,20,0,0,1,6.15,4.25,20.43,20.43,0,0,1,4.16,6.15,19.7,19.7,0,0,1,1.62,7.4V54.58a6.17,6.17,0,0,1-2,4.58,6.47,6.47,0,0,1-11-4.58V20.13a6.17,6.17,0,0,0-1.86-4.53,6.3,6.3,0,0,0-4.63-1.86,6.06,6.06,0,0,0-4.44,1.86,6.17,6.17,0,0,0-1.86,4.53V28a6.33,6.33,0,0,1-1.86,4.58,6.1,6.1,0,0,1-4.53,1.91,6.21,6.21,0,0,1-4.63-1.91A6.33,6.33,0,0,1,25.67,28V20.13a6,6,0,0,0-2-4.53,6.45,6.45,0,0,0-9.06,0,6,6,0,0,0-2,4.53V54.58a6.39,6.39,0,0,1-1.81,4.58A6,6,0,0,1,6.3,61.07a5.93,5.93,0,0,1-4.49-1.91A6.39,6.39,0,0,1,0,54.58V19.47a23.11,23.11,0,0,1,1.81-7.64A20.51,20.51,0,0,1,5.87,5.68,18.08,18.08,0,0,1,19.18.1Z" />
    <path class="cls-1" d="M119.47,52.39a6.25,6.25,0,0,1-.09,4.91,6.43,6.43,0,0,1-3.53,3.49A6.41,6.41,0,0,1,107.54,57l-.85-2.1H82.92L82.16,57a6.4,6.4,0,0,1-8.3,3.82,6.58,6.58,0,0,1-3.58-3.49,6.13,6.13,0,0,1-.14-4.91l18.7-48a7.34,7.34,0,0,1,2.48-3A6,6,0,0,1,94.85.19a6.17,6.17,0,0,1,3.58,1.15,6.59,6.59,0,0,1,2.43,3.05ZM86.93,44.56h15.75L94.85,24.33Z" />
    <path class="cls-1" d="M148.29.38a23.63,23.63,0,0,1,8.78,1.67,22.67,22.67,0,0,1,7.35,4.68,23.14,23.14,0,0,1,5.05,7.11,20.64,20.64,0,0,1,1.91,8.87V54.87a5.94,5.94,0,0,1-1.76,4.29,6.16,6.16,0,0,1-4.34,1.91,6.39,6.39,0,0,1-4.44-1.67A5.45,5.45,0,0,1,159,55.16V23.47a10.77,10.77,0,0,0-.81-4.15,10,10,0,0,0-2.29-3.38,11.56,11.56,0,0,0-3.44-2.29,10.32,10.32,0,0,0-4.25-.86,10.11,10.11,0,0,0-4,.81,11.21,11.21,0,0,0-3.34,2.15A9.86,9.86,0,0,0,138.56,19a9.54,9.54,0,0,0-.86,4V54.87a5.88,5.88,0,0,1-1.91,4.34,6.11,6.11,0,0,1-4.39,1.86A6.37,6.37,0,0,1,127,59.36a5.46,5.46,0,0,1-1.91-4.2V23.47a24,24,0,0,1,1.86-9,23.24,23.24,0,0,1,4.87-7.34A22.71,22.71,0,0,1,148.29.38Z" />
    <path class="cls-1" d="M226.35,52.39a6.29,6.29,0,0,1-.1,4.91,6.4,6.4,0,0,1-3.53,3.49,6.17,6.17,0,0,1-4.91-.15A6.24,6.24,0,0,1,214.42,57l-.86-2.1H189.8L189,57a6.41,6.41,0,0,1-8.31,3.82,6.6,6.6,0,0,1-3.57-3.49,6.13,6.13,0,0,1-.15-4.91l18.71-48a7.26,7.26,0,0,1,2.48-3A6,6,0,0,1,201.73.19a6.19,6.19,0,0,1,3.58,1.15,6.59,6.59,0,0,1,2.43,3.05Zm-32.54-7.83h15.74l-7.82-20.23Z" />
    <path class="cls-1" d="M272.44.19A6.73,6.73,0,0,1,277,2a5.85,5.85,0,0,1,2,4.58v48.1a5.69,5.69,0,0,1-.52,2.39,6.83,6.83,0,0,1-1.48,2,7.54,7.54,0,0,1-2.15,1.43,6,6,0,0,1-2.43.52,5.9,5.9,0,0,1-4.2-1.86,6.1,6.1,0,0,1-1.91-4.53V39h-20.8V54.68a6.35,6.35,0,0,1-6.4,6.39,6.59,6.59,0,0,1-4.81-1.81,6.44,6.44,0,0,1-2-4.58V6.58a5.75,5.75,0,0,1,2-4.67A7.12,7.12,0,0,1,239.13.19a6.1,6.1,0,0,1,4.54,1.91,6.22,6.22,0,0,1,1.86,4.48V26.05h20.8V6.58a6.15,6.15,0,0,1,1.91-4.48A5.84,5.84,0,0,1,272.44.19Z" />
    <path class="cls-1" d="M308.89,60.79A22.82,22.82,0,0,1,292.43,54a23.17,23.17,0,0,1-4.87-7.35,24,24,0,0,1-1.86-9V6a5.46,5.46,0,0,1,1.91-4.2A6.37,6.37,0,0,1,292,.1,6.11,6.11,0,0,1,296.39,2,5.88,5.88,0,0,1,298.3,6.3V38.17a9.54,9.54,0,0,0,.86,4,9.86,9.86,0,0,0,2.29,3.24,11.21,11.21,0,0,0,3.34,2.15,10.11,10.11,0,0,0,4,.81,10.48,10.48,0,0,0,4.25-.86,11.56,11.56,0,0,0,3.44-2.29,10,10,0,0,0,2.29-3.39,10.7,10.7,0,0,0,.81-4.15V6a5.43,5.43,0,0,1,1.86-4.24A6.39,6.39,0,0,1,325.88.1,6.19,6.19,0,0,1,330.22,2,6,6,0,0,1,332,6.3V38.46a20.78,20.78,0,0,1-1.9,8.87A23.34,23.34,0,0,1,325,54.44a22.84,22.84,0,0,1-7.35,4.68A23.63,23.63,0,0,1,308.89,60.79Z" />
    <path class="cls-1" d="M367,.29a17.66,17.66,0,0,1,7.07,1.43,17.82,17.82,0,0,1,9.63,9.64,18,18,0,0,1,.29,13.4,18.23,18.23,0,0,1-3.15,5.39,19.25,19.25,0,0,1,3.44,5.59,18.78,18.78,0,0,1-.24,14,19,19,0,0,1-4,5.87,18.64,18.64,0,0,1-5.92,4,18.08,18.08,0,0,1-7.25,1.48H345.15a6.3,6.3,0,0,1-4.63-1.86,6.17,6.17,0,0,1-1.86-4.53v-48a6.24,6.24,0,0,1,1.86-4.49,6.21,6.21,0,0,1,4.63-1.9Zm-6.39,29.86a6.35,6.35,0,0,1,6.3-6.29,5.92,5.92,0,0,0,3.91-1.77,5.21,5.21,0,0,0,1.53-3.77A5.38,5.38,0,0,0,367,13H351.45v35.5h15.46a6,6,0,0,0,6-6,5.7,5.7,0,0,0-1.67-4.1,6.49,6.49,0,0,0-4.34-1.91,6.35,6.35,0,0,1-6.3-6.3Z" />
    <path class="cls-1" d="M416,48.48a8.37,8.37,0,0,0,3.82-1.58,4.9,4.9,0,0,0,1.71-3.67,4.36,4.36,0,0,0-1.62-3.48,8.94,8.94,0,0,0-3.72-1.67l-6.68-1.15a29.27,29.27,0,0,1-6.78-1.76,17.6,17.6,0,0,1-5.82-3.82,19.41,19.41,0,0,1-4.1-6,16.47,16.47,0,0,1-1.43-7.25,17.44,17.44,0,0,1,1.43-7,16.4,16.4,0,0,1,4-5.63,19.85,19.85,0,0,1,6-3.77A22,22,0,0,1,407.75.38,27.13,27.13,0,0,1,412.33,0a23.25,23.25,0,0,1,5,.48,21.91,21.91,0,0,1,7.26,2.57c1.08.39,2.86,1.75,5.34,4.11a12,12,0,0,1,1,1.43,8.11,8.11,0,0,1,.81,1.72,6.26,6.26,0,0,1-.86,4.86,6.19,6.19,0,0,1-4.1,2.87,5.14,5.14,0,0,1-3.62-.34,15.57,15.57,0,0,1-3-2,12.07,12.07,0,0,0-3.06-2.43,9.42,9.42,0,0,0-4.34-.81,14.36,14.36,0,0,0-4.63.62,6.63,6.63,0,0,0-3,2A5,5,0,0,0,404,18.32a4.94,4.94,0,0,0,1.57,4A7.26,7.26,0,0,0,410,24.14l6.1.86a34.22,34.22,0,0,1,8.69,2.39,17.27,17.27,0,0,1,6,3.91A12.85,12.85,0,0,1,433.56,36a21.52,21.52,0,0,1,.82,6.44,19.13,19.13,0,0,1-1.53,6.92,18.53,18.53,0,0,1-4,5.92,19.12,19.12,0,0,1-5.92,4,18.86,18.86,0,0,1-7.11,1.57l-1.52.1a12.27,12.27,0,0,1-2.1,0,23.41,23.41,0,0,1-5-.48A21.73,21.73,0,0,1,400,57.92a21,21,0,0,1-8-8,9.54,9.54,0,0,1-.72-1.62,5.62,5.62,0,0,1-.33-1.82A6.5,6.5,0,0,1,397.45,40a5.25,5.25,0,0,1,3.43,1.1,11.75,11.75,0,0,1,2.39,2.72,9.07,9.07,0,0,0,3,3.05,11.83,11.83,0,0,0,3,1.48,10.67,10.67,0,0,0,2.62.38A30.06,30.06,0,0,0,416,48.48Z" />
    <path class="cls-1" d="M228.54,74a1.6,1.6,0,0,0-.87-.25h-1.79v8.86h1.79a1.54,1.54,0,0,0,.88-.26,1.94,1.94,0,0,0,.91-1.63V75.67a1.88,1.88,0,0,0-.25-1A2.1,2.1,0,0,0,228.54,74Z" />
    <path class="cls-1" d="M432.38,65.21H53.32a2,2,0,0,0-2,2h0a24,24,0,0,0,24,24H432.38a2,2,0,0,0,2-2v-22A2,2,0,0,0,432.38,65.21ZM231.67,80.75a4.24,4.24,0,0,1-.53,2.06,4.07,4.07,0,0,1-1.45,1.52,3.76,3.76,0,0,1-2,.57h-2.9a1.05,1.05,0,0,1-.79-.35,1.09,1.09,0,0,1-.31-.79V72.66a1.09,1.09,0,0,1,1.1-1.13h2.9a3.87,3.87,0,0,1,2,.56,4.07,4.07,0,0,1,1.45,1.52,4.24,4.24,0,0,1,.53,2.06Zm20.76-3.67a1,1,0,0,1,.79.35,1.14,1.14,0,0,1,.31.79,1.09,1.09,0,0,1-.34.81,1.07,1.07,0,0,1-.76.31h-3.79v3.3h5a1.06,1.06,0,0,1,.77.33,1.17,1.17,0,0,1,.32.81,1.09,1.09,0,0,1-.34.81,1.06,1.06,0,0,1-.75.31h-6.13a1,1,0,0,1-.77-.35,1.05,1.05,0,0,1-.32-.79V72.66a1.15,1.15,0,0,1,.31-.79,1,1,0,0,1,.78-.34h6.13a1.08,1.08,0,0,1,.77.33,1.24,1.24,0,0,1,.32.81,1.11,1.11,0,0,1-.32.8,1.07,1.07,0,0,1-.77.32h-5v3.29Zm24.4,7.5a1.08,1.08,0,0,1-.78.32,1.11,1.11,0,0,1-1-.57l-1.85-3.66-1.84,3.62a1.12,1.12,0,0,1-1,.61,1.09,1.09,0,0,1-.79-.33,1.12,1.12,0,0,1-.34-.79,1,1,0,0,1,.19-.61l2.5-5-2.55-5a1.5,1.5,0,0,1-.12-.57,1.07,1.07,0,0,1,.34-.79,1.09,1.09,0,0,1,.77-.3,1,1,0,0,1,1,.64l1.83,3.59,1.83-3.61a1.08,1.08,0,0,1,1-.62,1,1,0,0,1,.79.31,1.08,1.08,0,0,1,.31.78,1.56,1.56,0,0,1-.1.53l-2.56,5.07,2.54,5a1.38,1.38,0,0,1,.14.55A1,1,0,0,1,276.83,84.58Z" />
</svg>