<svg id="Layer_1" data-name="Layer 1" width="180" height="40" xmlns="http://www.w3.org/2000/svg" viewBox="0 0 434.38 91.22"><defs><style>.cls-1{fill:#fff;}</style></defs><path class="cls-1" d="M19.18.1a19.84,19.84,0,0,1,7,1.38,22.45,22.45,0,0,1,6,3.58,16.77,16.77,0,0,1,5.92-3.72A19.2,19.2,0,0,1,44.85.1a18.29,18.29,0,0,1,7.54,1.57,20,20,0,0,1,6.15,4.25,20.43,20.43,0,0,1,4.16,6.15,19.7,19.7,0,0,1,1.62,7.4V54.58a6.17,6.17,0,0,1-2,4.58,6.47,6.47,0,0,1-11-4.58V20.13a6.17,6.17,0,0,0-1.86-4.53,6.3,6.3,0,0,0-4.63-1.86,6.06,6.06,0,0,0-4.44,1.86,6.17,6.17,0,0,0-1.86,4.53V28a6.33,6.33,0,0,1-1.86,4.58,6.1,6.1,0,0,1-4.53,1.91,6.21,6.21,0,0,1-4.63-1.91A6.33,6.33,0,0,1,25.67,28V20.13a6,6,0,0,0-2-4.53,6.45,6.45,0,0,0-9.06,0,6,6,0,0,0-2,4.53V54.58a6.39,6.39,0,0,1-1.81,4.58A6,6,0,0,1,6.3,61.07a5.93,5.93,0,0,1-4.49-1.91A6.39,6.39,0,0,1,0,54.58V19.47a23.11,23.11,0,0,1,1.81-7.64A20.51,20.51,0,0,1,5.87,5.68,18.08,18.08,0,0,1,19.18.1Z"/><path class="cls-1" d="M119.47,52.39a6.25,6.25,0,0,1-.09,4.91,6.43,6.43,0,0,1-3.53,3.49A6.41,6.41,0,0,1,107.54,57l-.85-2.1H82.92L82.16,57a6.4,6.4,0,0,1-8.3,3.82,6.58,6.58,0,0,1-3.58-3.49,6.13,6.13,0,0,1-.14-4.91l18.7-48a7.34,7.34,0,0,1,2.48-3A6,6,0,0,1,94.85.19a6.17,6.17,0,0,1,3.58,1.15,6.59,6.59,0,0,1,2.43,3.05ZM86.93,44.56h15.75L94.85,24.33Z"/><path class="cls-1" d="M148.29.38a23.63,23.63,0,0,1,8.78,1.67,22.67,22.67,0,0,1,7.35,4.68,23.14,23.14,0,0,1,5.05,7.11,20.64,20.64,0,0,1,1.91,8.87V54.87a5.94,5.94,0,0,1-1.76,4.29,6.16,6.16,0,0,1-4.34,1.91,6.39,6.39,0,0,1-4.44-1.67A5.45,5.45,0,0,1,159,55.16V23.47a10.77,10.77,0,0,0-.81-4.15,10,10,0,0,0-2.29-3.38,11.56,11.56,0,0,0-3.44-2.29,10.32,10.32,0,0,0-4.25-.86,10.11,10.11,0,0,0-4,.81,11.21,11.21,0,0,0-3.34,2.15A9.86,9.86,0,0,0,138.56,19a9.54,9.54,0,0,0-.86,4V54.87a5.88,5.88,0,0,1-1.91,4.34,6.11,6.11,0,0,1-4.39,1.86A6.37,6.37,0,0,1,127,59.36a5.46,5.46,0,0,1-1.91-4.2V23.47a24,24,0,0,1,1.86-9,23.24,23.24,0,0,1,4.87-7.34A22.71,22.71,0,0,1,148.29.38Z"/><path class="cls-1" d="M226.35,52.39a6.29,6.29,0,0,1-.1,4.91,6.4,6.4,0,0,1-3.53,3.49,6.17,6.17,0,0,1-4.91-.15A6.24,6.24,0,0,1,214.42,57l-.86-2.1H189.8L189,57a6.41,6.41,0,0,1-8.31,3.82,6.6,6.6,0,0,1-3.57-3.49,6.13,6.13,0,0,1-.15-4.91l18.71-48a7.26,7.26,0,0,1,2.48-3A6,6,0,0,1,201.73.19a6.19,6.19,0,0,1,3.58,1.15,6.59,6.59,0,0,1,2.43,3.05Zm-32.54-7.83h15.74l-7.82-20.23Z"/><path class="cls-1" d="M272.44.19A6.73,6.73,0,0,1,277,2a5.85,5.85,0,0,1,2,4.58v48.1a5.69,5.69,0,0,1-.52,2.39,6.83,6.83,0,0,1-1.48,2,7.54,7.54,0,0,1-2.15,1.43,6,6,0,0,1-2.43.52,5.9,5.9,0,0,1-4.2-1.86,6.1,6.1,0,0,1-1.91-4.53V39h-20.8V54.68a6.35,6.35,0,0,1-6.4,6.39,6.59,6.59,0,0,1-4.81-1.81,6.44,6.44,0,0,1-2-4.58V6.58a5.75,5.75,0,0,1,2-4.67A7.12,7.12,0,0,1,239.13.19a6.1,6.1,0,0,1,4.54,1.91,6.22,6.22,0,0,1,1.86,4.48V26.05h20.8V6.58a6.15,6.15,0,0,1,1.91-4.48A5.84,5.84,0,0,1,272.44.19Z"/><path class="cls-1" d="M308.89,60.79A22.82,22.82,0,0,1,292.43,54a23.17,23.17,0,0,1-4.87-7.35,24,24,0,0,1-1.86-9V6a5.46,5.46,0,0,1,1.91-4.2A6.37,6.37,0,0,1,292,.1,6.11,6.11,0,0,1,296.39,2,5.88,5.88,0,0,1,298.3,6.3V38.17a9.54,9.54,0,0,0,.86,4,9.86,9.86,0,0,0,2.29,3.24,11.21,11.21,0,0,0,3.34,2.15,10.11,10.11,0,0,0,4,.81,10.48,10.48,0,0,0,4.25-.86,11.56,11.56,0,0,0,3.44-2.29,10,10,0,0,0,2.29-3.39,10.7,10.7,0,0,0,.81-4.15V6a5.43,5.43,0,0,1,1.86-4.24A6.39,6.39,0,0,1,325.88.1,6.19,6.19,0,0,1,330.22,2,6,6,0,0,1,332,6.3V38.46a20.78,20.78,0,0,1-1.9,8.87A23.34,23.34,0,0,1,325,54.44a22.84,22.84,0,0,1-7.35,4.68A23.63,23.63,0,0,1,308.89,60.79Z"/><path class="cls-1" d="M367,.29a17.66,17.66,0,0,1,7.07,1.43,17.82,17.82,0,0,1,9.63,9.64,18,18,0,0,1,.29,13.4,18.23,18.23,0,0,1-3.15,5.39,19.25,19.25,0,0,1,3.44,5.59,18.78,18.78,0,0,1-.24,14,19,19,0,0,1-4,5.87,18.64,18.64,0,0,1-5.92,4,18.08,18.08,0,0,1-7.25,1.48H345.15a6.3,6.3,0,0,1-4.63-1.86,6.17,6.17,0,0,1-1.86-4.53v-48a6.24,6.24,0,0,1,1.86-4.49,6.21,6.21,0,0,1,4.63-1.9Zm-6.39,29.86a6.35,6.35,0,0,1,6.3-6.29,5.92,5.92,0,0,0,3.91-1.77,5.21,5.21,0,0,0,1.53-3.77A5.38,5.38,0,0,0,367,13H351.45v35.5h15.46a6,6,0,0,0,6-6,5.7,5.7,0,0,0-1.67-4.1,6.49,6.49,0,0,0-4.34-1.91,6.35,6.35,0,0,1-6.3-6.3Z"/><path class="cls-1" d="M416,48.48a8.37,8.37,0,0,0,3.82-1.58,4.9,4.9,0,0,0,1.71-3.67,4.36,4.36,0,0,0-1.62-3.48,8.94,8.94,0,0,0-3.72-1.67l-6.68-1.15a29.27,29.27,0,0,1-6.78-1.76,17.6,17.6,0,0,1-5.82-3.82,19.41,19.41,0,0,1-4.1-6,16.47,16.47,0,0,1-1.43-7.25,17.44,17.44,0,0,1,1.43-7,16.4,16.4,0,0,1,4-5.63,19.85,19.85,0,0,1,6-3.77A22,22,0,0,1,407.75.38,27.13,27.13,0,0,1,412.33,0a23.25,23.25,0,0,1,5,.48,21.91,21.91,0,0,1,7.26,2.57c1.08.39,2.86,1.75,5.34,4.11a12,12,0,0,1,1,1.43,8.11,8.11,0,0,1,.81,1.72,6.26,6.26,0,0,1-.86,4.86,6.19,6.19,0,0,1-4.1,2.87,5.14,5.14,0,0,1-3.62-.34,15.57,15.57,0,0,1-3-2,12.07,12.07,0,0,0-3.06-2.43,9.42,9.42,0,0,0-4.34-.81,14.36,14.36,0,0,0-4.63.62,6.63,6.63,0,0,0-3,2A5,5,0,0,0,404,18.32a4.94,4.94,0,0,0,1.57,4A7.26,7.26,0,0,0,410,24.14l6.1.86a34.22,34.22,0,0,1,8.69,2.39,17.27,17.27,0,0,1,6,3.91A12.85,12.85,0,0,1,433.56,36a21.52,21.52,0,0,1,.82,6.44,19.13,19.13,0,0,1-1.53,6.92,18.53,18.53,0,0,1-4,5.92,19.12,19.12,0,0,1-5.92,4,18.86,18.86,0,0,1-7.11,1.57l-1.52.1a12.27,12.27,0,0,1-2.1,0,23.41,23.41,0,0,1-5-.48A21.73,21.73,0,0,1,400,57.92a21,21,0,0,1-8-8,9.54,9.54,0,0,1-.72-1.62,5.62,5.62,0,0,1-.33-1.82A6.5,6.5,0,0,1,397.45,40a5.25,5.25,0,0,1,3.43,1.1,11.75,11.75,0,0,1,2.39,2.72,9.07,9.07,0,0,0,3,3.05,11.83,11.83,0,0,0,3,1.48,10.67,10.67,0,0,0,2.62.38A30.06,30.06,0,0,0,416,48.48Z"/><polygon class="cls-1" points="363.39 79.44 366.01 79.44 364.7 75.89 363.39 79.44"/><path class="cls-1" d="M228,74.06a1.84,1.84,0,0,0-1-.27h-1.25v4.07H227a1.8,1.8,0,0,0,.95-.27h0a2.1,2.1,0,0,0,.73-.75,2.13,2.13,0,0,0,0-2A2.1,2.1,0,0,0,228,74.06Z"/><polygon class="cls-1" points="203.2 79.44 205.81 79.44 204.51 75.89 203.2 79.44"/><path class="cls-1" d="M319.86,74.07a1.67,1.67,0,0,0-.94-.28h-1.56v4.07h1.56a1.79,1.79,0,0,0,.94-.27,2.16,2.16,0,0,0,.72-.75,2.05,2.05,0,0,0-.72-2.77Z"/><path class="cls-1" d="M432.38,65.21H53.32a2,2,0,0,0-2,2h0a24,24,0,0,0,24,24H432.38a2,2,0,0,0,2-2v-22A2,2,0,0,0,432.38,65.21ZM94.23,83.76a1.12,1.12,0,0,1-.34.83,1.11,1.11,0,0,1-.76.31,1,1,0,0,1-1-.61l-4-7.31v6.78a1.1,1.1,0,0,1-1.9.79,1.09,1.09,0,0,1-.31-.79V72.64a1.13,1.13,0,0,1,.34-.81,1.09,1.09,0,0,1,1.72.28l4,7.33v-6.8a1.07,1.07,0,0,1,.35-.81,1.1,1.1,0,0,1,1.85.81Zm23-10.3a1.06,1.06,0,0,1-.77.33h-4.69v3.29h3.45a1.06,1.06,0,0,1,.79.34,1.12,1.12,0,0,1,.31.8,1.11,1.11,0,0,1-1.1,1.12h-3.45v4.42a1.08,1.08,0,0,1-.34.82,1,1,0,0,1-.77.32,1,1,0,0,1-.77-.35,1.1,1.1,0,0,1-.31-.79V72.66a1.15,1.15,0,0,1,.3-.79,1,1,0,0,1,.78-.34h5.8a1.06,1.06,0,0,1,.77.33,1.13,1.13,0,0,1,.33.8A1.09,1.09,0,0,1,117.22,73.46Zm23.5,0a1.13,1.13,0,0,1-.82.34H137v10a1.11,1.11,0,0,1-1.12,1.14,1.14,1.14,0,0,1-1.12-1.14v-10H131.8a1.09,1.09,0,0,1-.81-.34,1.12,1.12,0,0,1-.31-.79,1.13,1.13,0,0,1,.32-.81,1.06,1.06,0,0,1,.8-.32h8.1a1.13,1.13,0,0,1,.81.32,1.16,1.16,0,0,1,.31.81A1.15,1.15,0,0,1,140.72,73.45Zm45.44,10.31a1.11,1.11,0,0,1-1.11,1.14,1.07,1.07,0,0,1-.81-.35,1.11,1.11,0,0,1-.3-.79V77.62l-1.32,2.77a1,1,0,0,1-1,.64,1.09,1.09,0,0,1-1-.62l-1.31-2.79v6.14a1.12,1.12,0,0,1-.31.79,1.12,1.12,0,0,1-1.92-.79V72.64a1.07,1.07,0,0,1,.37-.82,1.06,1.06,0,0,1,.74-.29,1,1,0,0,1,1,.64l2.43,5.13,2.43-5.14a1.1,1.1,0,0,1,1-.63,1.08,1.08,0,0,1,.78.32,1.11,1.11,0,0,1,.33.79Zm23.22.85a1.13,1.13,0,0,1-.77.29,1.11,1.11,0,0,1-1-.72l-.92-2.48h-4.31l-.91,2.47a1.11,1.11,0,0,1-1,.73,1.08,1.08,0,0,1-.78-.32,1.1,1.1,0,0,1-.34-.82l0-.17,4.16-11.35a1,1,0,0,1,1-.71,1.11,1.11,0,0,1,.63.18,1.06,1.06,0,0,1,.41.54l4.18,11.51A1.08,1.08,0,0,1,209.38,84.61Zm22.22,0a1.12,1.12,0,0,1-.78.33,1.08,1.08,0,0,1-.9-.47l-3-4.31h-1.19v3.64a1.11,1.11,0,0,1-.3.79,1.09,1.09,0,0,1-1.61,0,1.06,1.06,0,0,1-.31-.77V72.66a1.12,1.12,0,0,1,.34-.8,1.08,1.08,0,0,1,.77-.33H227a4,4,0,0,1,2.1.58,4.54,4.54,0,0,1,1.51,1.57,4.33,4.33,0,0,1,.56,2.14,4.19,4.19,0,0,1-.69,2.34,4.41,4.41,0,0,1-1.28,1.3l2.53,3.67a1.06,1.06,0,0,1,.21.63A1.1,1.1,0,0,1,231.6,84.57Zm23.12,0a1.09,1.09,0,0,1-.79.33,1.07,1.07,0,0,1-1-.54l-3-5.13-1.2,2v2.57a1.12,1.12,0,0,1-.31.79,1.12,1.12,0,0,1-1.92-.79V72.64a1.08,1.08,0,0,1,.35-.81,1.12,1.12,0,0,1,1.55,0,1.07,1.07,0,0,1,.33.79V77l3-4.91a1.11,1.11,0,0,1,1-.51h0a1,1,0,0,1,.76.34,1.16,1.16,0,0,1,.31.79,1.11,1.11,0,0,1-.17.57l-2.37,3.86,3.6,6.1a1.53,1.53,0,0,1,.15.61A1.09,1.09,0,0,1,254.72,84.57Zm20.52-7.49a1,1,0,0,1,.79.35,1.14,1.14,0,0,1,.31.79,1.06,1.06,0,0,1-.34.8,1,1,0,0,1-.76.32h-3.79v3.3h5a1.06,1.06,0,0,1,.77.33,1.14,1.14,0,0,1,.31.81,1.09,1.09,0,0,1-.33.81,1.06,1.06,0,0,1-.75.31h-6.13a1,1,0,0,1-.77-.35,1.05,1.05,0,0,1-.32-.79V72.66a1.15,1.15,0,0,1,.31-.79,1,1,0,0,1,.78-.34h6.13a1.08,1.08,0,0,1,.77.33,1.23,1.23,0,0,1,.31.81,1.08,1.08,0,0,1-1.08,1.12h-5v3.29Zm25.67-3.63a1.12,1.12,0,0,1-.81.34h-2.94v10a1.11,1.11,0,0,1-.3.79,1.13,1.13,0,0,1-.81.35,1.07,1.07,0,0,1-.81-.35,1.1,1.1,0,0,1-.31-.79v-10H292a1.11,1.11,0,0,1-1.12-1.13,1.1,1.1,0,0,1,.33-.81,1,1,0,0,1,.79-.32h8.11a1.11,1.11,0,0,1,.8.32,1.17,1.17,0,0,1,.32.81A1.11,1.11,0,0,1,300.91,73.45ZM322.51,78A4.33,4.33,0,0,1,321,79.54a3.93,3.93,0,0,1-2.07.58h-1.56v3.64a1.11,1.11,0,0,1-1.12,1.14,1.14,1.14,0,0,1-1.11-1.14V72.66a1.15,1.15,0,0,1,.33-.8,1.08,1.08,0,0,1,.78-.33h2.68a3.9,3.9,0,0,1,2.08.59,4.42,4.42,0,0,1,1.51,1.56,4.39,4.39,0,0,1,0,4.29Zm23.63,6.6a1.1,1.1,0,0,1-.77.33h-6.1a1.08,1.08,0,0,1-.77-.33,1.1,1.1,0,0,1-.33-.82V72.64a1.07,1.07,0,0,1,.33-.79,1,1,0,0,1,.79-.32h0a1.11,1.11,0,0,1,1.09,1.13v10h5a1.07,1.07,0,0,1,.77.34,1,1,0,0,1,.32.81A1.07,1.07,0,0,1,346.14,84.57Zm23.43,0a1.1,1.1,0,0,1-.77.29,1,1,0,0,1-.67-.24,1.11,1.11,0,0,1-.36-.48l-.92-2.48h-4.3l-.92,2.47a1.11,1.11,0,0,1-1.82.41,1.13,1.13,0,0,1-.33-.82l0-.17,4.15-11.35a1.07,1.07,0,0,1,1-.71,1.11,1.11,0,0,1,.63.18,1,1,0,0,1,.41.54l4.18,11.51A1.08,1.08,0,0,1,369.57,84.61ZM386.2,81.7a1.85,1.85,0,0,0,.67.69,1.69,1.69,0,0,0,1.8,0,1.76,1.76,0,0,0,.65-.7,2,2,0,0,0,.23-.93,1.09,1.09,0,0,1,.35-.82,1.1,1.1,0,0,1,1.52,0,1.13,1.13,0,0,1,.33.81,4.23,4.23,0,0,1-.52,2.06,4.1,4.1,0,0,1-1.46,1.52,3.71,3.71,0,0,1-2,.57,3.66,3.66,0,0,1-2-.58,4,4,0,0,1-1.44-1.52,4.08,4.08,0,0,1-.54-2V75.67a4.22,4.22,0,0,1,2-3.58,3.91,3.91,0,0,1,4,0,4,4,0,0,1,1.45,1.51,4.2,4.2,0,0,1,.53,2.07,1.06,1.06,0,0,1-.34.83,1.1,1.1,0,0,1-1.55,0,1.12,1.12,0,0,1-.31-.79,1.87,1.87,0,0,0-.25-.94,1.79,1.79,0,0,0-.66-.68,1.66,1.66,0,0,0-1.78,0,2,2,0,0,0-.67.7,1.85,1.85,0,0,0-.23.92v5.08A2,2,0,0,0,386.2,81.7Zm26.35-4.62a1,1,0,0,1,.79.35,1.14,1.14,0,0,1,.31.79,1.06,1.06,0,0,1-.34.8,1,1,0,0,1-.76.32h-3.79v3.3h5a1.06,1.06,0,0,1,.77.33,1.15,1.15,0,0,1,.32.81,1.09,1.09,0,0,1-.34.81,1.06,1.06,0,0,1-.75.31h-6.13a1,1,0,0,1-.77-.35,1.05,1.05,0,0,1-.32-.79V72.66a1.15,1.15,0,0,1,.31-.79,1,1,0,0,1,.78-.34h6.13a1.08,1.08,0,0,1,.77.33,1.24,1.24,0,0,1,.32.81,1.11,1.11,0,0,1-.32.8,1.09,1.09,0,0,1-.77.32h-5v3.29Z"/><polygon class="cls-1" points="86.61 72.2 86.62 72.2 86.61 72.2 86.61 72.2"/></svg>