<svg id="Layer_1" data-name="Layer 1" width="180" height="40" xmlns="http://www.w3.org/2000/svg" fill="none" viewBox="0 0 434.38 61.23">
    <path fill="white" class="cls-1" d="M19.18.21a19.84,19.84,0,0,1,7,1.38,22.45,22.45,0,0,1,6,3.58,17.06,17.06,0,0,1,5.92-3.72A19.2,19.2,0,0,1,44.85.21a18.29,18.29,0,0,1,7.54,1.57A20,20,0,0,1,58.54,6a20.43,20.43,0,0,1,4.16,6.15,19.74,19.74,0,0,1,1.62,7.4V54.7a6.19,6.19,0,0,1-2,4.58,6.39,6.39,0,0,1-9.11,0,6.22,6.22,0,0,1-1.91-4.58V20.25a6.17,6.17,0,0,0-1.86-4.53,6.26,6.26,0,0,0-4.63-1.87,6,6,0,0,0-4.44,1.87,6.17,6.17,0,0,0-1.86,4.53v7.82a6.33,6.33,0,0,1-1.86,4.58,6.06,6.06,0,0,1-4.53,1.91,6.17,6.17,0,0,1-4.63-1.91,6.33,6.33,0,0,1-1.86-4.58V20.25a6,6,0,0,0-2-4.53,6.42,6.42,0,0,0-9.06,0,6,6,0,0,0-2,4.53V54.7a6.4,6.4,0,0,1-1.81,4.58A6.07,6.07,0,0,1,6.3,61.19a6,6,0,0,1-4.49-1.91A6.4,6.4,0,0,1,0,54.7V19.58A23.06,23.06,0,0,1,1.81,12,20.43,20.43,0,0,1,5.87,5.79,18.18,18.18,0,0,1,19.18.21Z" />
    <path fill="white" class="cls-1" d="M119.47,52.5a6.27,6.27,0,0,1-.09,4.92,6.44,6.44,0,0,1-3.53,3.48,6.19,6.19,0,0,1-4.92-.14,6.26,6.26,0,0,1-3.39-3.68l-.85-2.1H82.92l-.76,2.1a6.38,6.38,0,0,1-8.3,3.82,6.6,6.6,0,0,1-3.58-3.48,6.15,6.15,0,0,1-.14-4.92l18.7-48a7.41,7.41,0,0,1,2.48-3A6,6,0,0,1,94.85.3a6.17,6.17,0,0,1,3.58,1.15,6.59,6.59,0,0,1,2.43,3.05ZM86.93,44.68h15.75L94.85,24.45Z" />
    <path fill="white" class="cls-1" d="M148.29.49a23.63,23.63,0,0,1,8.78,1.67,22.84,22.84,0,0,1,7.35,4.68A23.26,23.26,0,0,1,169.47,14a20.67,20.67,0,0,1,1.91,8.87V55a6,6,0,0,1-1.76,4.3,6.2,6.2,0,0,1-4.34,1.91,6.44,6.44,0,0,1-4.44-1.67A5.47,5.47,0,0,1,159,55.27V23.59a10.73,10.73,0,0,0-.81-4.15,10,10,0,0,0-2.29-3.39,11.75,11.75,0,0,0-3.44-2.29,10.48,10.48,0,0,0-4.25-.86,10.11,10.11,0,0,0-4,.81,11.21,11.21,0,0,0-3.34,2.15,9.86,9.86,0,0,0-2.29,3.24,9.58,9.58,0,0,0-.86,4V55a5.88,5.88,0,0,1-1.91,4.34,6.08,6.08,0,0,1-4.39,1.87A6.38,6.38,0,0,1,127,59.47a5.46,5.46,0,0,1-1.91-4.2V23.59a24,24,0,0,1,1.86-9,23.17,23.17,0,0,1,4.87-7.35A22.82,22.82,0,0,1,148.29.49Z" />
    <path fill="white" class="cls-1" d="M226.35,52.5a6.32,6.32,0,0,1-.1,4.92,6.41,6.41,0,0,1-3.53,3.48,6.17,6.17,0,0,1-4.91-.14,6.26,6.26,0,0,1-3.39-3.68l-.86-2.1H189.8l-.76,2.1a6.26,6.26,0,0,1-3.39,3.68,6.19,6.19,0,0,1-4.92.14,6.61,6.61,0,0,1-3.57-3.48A6.15,6.15,0,0,1,177,52.5l18.71-48a7.33,7.33,0,0,1,2.48-3A6,6,0,0,1,201.73.3a6.19,6.19,0,0,1,3.58,1.15,6.59,6.59,0,0,1,2.43,3.05Zm-32.54-7.82h15.74l-7.82-20.23Z" />
    <path fill="white" class="cls-2" d="M272.44.3A6.7,6.7,0,0,1,277,2.12a5.83,5.83,0,0,1,2,4.58V54.79a5.69,5.69,0,0,1-.52,2.39,6.7,6.7,0,0,1-1.48,2,7.54,7.54,0,0,1-2.15,1.43,6,6,0,0,1-2.43.53,5.87,5.87,0,0,1-4.2-1.87,6.1,6.1,0,0,1-1.91-4.53V39.14h-20.8V54.79a6.37,6.37,0,0,1-6.4,6.4,6.59,6.59,0,0,1-4.81-1.82,6.44,6.44,0,0,1-2-4.58V6.7a5.79,5.79,0,0,1,2-4.68A7.17,7.17,0,0,1,239.13.3a6.1,6.1,0,0,1,4.54,1.91,6.24,6.24,0,0,1,1.86,4.49V26.16h20.8V6.7a6.17,6.17,0,0,1,1.91-4.49A5.84,5.84,0,0,1,272.44.3Z" />
    <path fill="white" class="cls-2" d="M308.89,60.9a22.71,22.71,0,0,1-16.46-6.78,23.13,23.13,0,0,1-4.87-7.34,24,24,0,0,1-1.86-9V6.12a5.43,5.43,0,0,1,1.91-4.19A6.34,6.34,0,0,1,292,.21a6.11,6.11,0,0,1,4.39,1.86,5.89,5.89,0,0,1,1.91,4.34V38.28a9.54,9.54,0,0,0,.86,4,9.9,9.9,0,0,0,2.29,3.25,11.18,11.18,0,0,0,3.34,2.14,10.11,10.11,0,0,0,4,.81,10.48,10.48,0,0,0,4.25-.85,12,12,0,0,0,3.44-2.29A10.16,10.16,0,0,0,318.77,42a10.77,10.77,0,0,0,.81-4.15V6.12a5.45,5.45,0,0,1,1.86-4.24A6.44,6.44,0,0,1,325.88.21a6.16,6.16,0,0,1,4.34,1.91A6,6,0,0,1,332,6.41V38.57a20.78,20.78,0,0,1-1.9,8.87A23.34,23.34,0,0,1,325,54.55a22.51,22.51,0,0,1-7.35,4.68A23.63,23.63,0,0,1,308.89,60.9Z" />
    <path fill="white" class="cls-2" d="M367,.4a17.83,17.83,0,0,1,7.07,1.43,17.82,17.82,0,0,1,9.63,9.64A18.06,18.06,0,0,1,384,24.88a18.49,18.49,0,0,1-3.15,5.39,19.07,19.07,0,0,1,3.44,5.58,18.81,18.81,0,0,1-.24,14,18.43,18.43,0,0,1-9.88,9.83,18.26,18.26,0,0,1-7.25,1.48H345.15a6.26,6.26,0,0,1-4.63-1.87,6.17,6.17,0,0,1-1.86-4.53v-48a6.2,6.2,0,0,1,1.86-4.48A6.22,6.22,0,0,1,345.15.4Zm-6.39,29.87a6.35,6.35,0,0,1,6.3-6.3,5.92,5.92,0,0,0,3.91-1.77,5.21,5.21,0,0,0,1.53-3.77A5.4,5.4,0,0,0,367,13.09H351.45v35.5h15.46a6,6,0,0,0,6-6,5.72,5.72,0,0,0-1.67-4.11,6.44,6.44,0,0,0-4.34-1.9,6.37,6.37,0,0,1-6.3-6.3Z" />
    <path fill="white" class="cls-2" d="M416,48.59A8.26,8.26,0,0,0,419.78,47a4.88,4.88,0,0,0,1.71-3.67,4.36,4.36,0,0,0-1.62-3.48,9.07,9.07,0,0,0-3.72-1.67L409.47,37a28.78,28.78,0,0,1-6.78-1.76,17.45,17.45,0,0,1-5.82-3.82,19.25,19.25,0,0,1-4.1-6,16.51,16.51,0,0,1-1.43-7.26,17.44,17.44,0,0,1,1.43-7,16.5,16.5,0,0,1,4-5.63,19.85,19.85,0,0,1,6-3.77A22,22,0,0,1,407.75.49a27.13,27.13,0,0,1,4.58-.38,23.25,23.25,0,0,1,5,.48,21.93,21.93,0,0,1,7.26,2.58q1.62.57,5.34,4.1a12,12,0,0,1,1,1.43,8.34,8.34,0,0,1,.81,1.72,6.28,6.28,0,0,1-.86,4.87,6.17,6.17,0,0,1-4.1,2.86,5,5,0,0,1-3.62-.34,15.57,15.57,0,0,1-3-2,12.07,12.07,0,0,0-3.06-2.43,9.42,9.42,0,0,0-4.34-.81,14.36,14.36,0,0,0-4.63.62,6.57,6.57,0,0,0-3,2A5,5,0,0,0,404,18.43a4.92,4.92,0,0,0,1.57,4A7.33,7.33,0,0,0,410,24.26l6.1.85a34.22,34.22,0,0,1,8.69,2.39,17.27,17.27,0,0,1,6,3.91,12.88,12.88,0,0,1,2.81,4.73,21.42,21.42,0,0,1,.82,6.44,19.22,19.22,0,0,1-1.53,6.92,18.49,18.49,0,0,1-4,5.91,19.12,19.12,0,0,1-5.92,4A18.67,18.67,0,0,1,415.86,61l-1.52.1a12.27,12.27,0,0,1-2.1,0,23.41,23.41,0,0,1-5-.48A21.94,21.94,0,0,1,400,58a21.06,21.06,0,0,1-8-8,8.87,8.87,0,0,1-.72-1.62,5.56,5.56,0,0,1-.33-1.81,6.5,6.5,0,0,1,6.49-6.49,5.24,5.24,0,0,1,3.43,1.09,12,12,0,0,1,2.39,2.72,9.1,9.1,0,0,0,3,3.06,12.55,12.55,0,0,0,3,1.48,11.17,11.17,0,0,0,2.62.38A32.16,32.16,0,0,0,416,48.59Z" />
    <defs>
        <clipPath id="clip0_24_2634">
            <rect width="180" height="39.5988" fill="white" />
        </clipPath>
    </defs>
    <!-- <defs>
        <style>.cls-1{fill:#fea013;}.cls-2{fill:#8578ff;}</style>
    </defs> -->
</svg>