<?xml version="1.0" standalone="no"?>
<!DOCTYPE svg PUBLIC "-//W3C//DTD SVG 20010904//EN"
 "http://www.w3.org/TR/2001/REC-SVG-20010904/DTD/svg10.dtd">
<svg version="1.0" xmlns="http://www.w3.org/2000/svg"
 width="2250.000000pt" height="2250.000000pt" viewBox="0 0 2250.000000 2250.000000"
 preserveAspectRatio="xMidYMid meet">
<metadata>
Created by potrace 1.14, written by Peter Selinger 2001-2017
</metadata>
<g transform="translate(0.000000,2250.000000) scale(0.100000,-0.100000)"
fill="#000000" stroke="none">
<path d="M18266 22457 c3 -10 9 -15 12 -12 3 3 0 11 -7 18 -10 9 -11 8 -5 -6z"/>
<path d="M18451 22454 c0 -11 3 -14 6 -6 3 7 2 16 -1 19 -3 4 -6 -2 -5 -13z"/>
<path d="M20023 22425 c0 -8 4 -12 9 -9 5 3 6 10 3 15 -9 13 -12 11 -12 -6z"/>
<path d="M1775 22404 c-9 -15 -12 -23 -6 -20 11 7 35 46 28 46 -3 0 -12 -12
-22 -26z"/>
<path d="M1691 22297 c-13 -21 -12 -21 5 -5 10 10 16 20 13 22 -3 3 -11 -5
-18 -17z"/>
<path d="M16558 22283 c7 -3 16 -2 19 1 4 3 -2 6 -13 5 -11 0 -14 -3 -6 -6z"/>
<path d="M1405 22219 c-4 -6 -5 -12 -2 -15 2 -3 7 2 10 11 7 17 1 20 -8 4z"/>
<path d="M1374 22168 l-19 -23 23 19 c12 11 22 21 22 23 0 8 -8 2 -26 -19z"/>
<path d="M22491 22084 c0 -11 3 -14 6 -6 3 7 2 16 -1 19 -3 4 -6 -2 -5 -13z"/>
<path d="M1561 21914 c0 -11 3 -14 6 -6 3 7 2 16 -1 19 -3 4 -6 -2 -5 -13z"/>
<path d="M19871 21894 c0 -11 3 -14 6 -6 3 7 2 16 -1 19 -3 4 -6 -2 -5 -13z"/>
<path d="M21275 21809 c-4 -6 -5 -12 -2 -15 2 -3 7 2 10 11 7 17 1 20 -8 4z"/>
<path d="M21943 21735 c0 -8 4 -12 9 -9 5 3 6 10 3 15 -9 13 -12 11 -12 -6z"/>
<path d="M21966 21697 c3 -10 9 -15 12 -12 3 3 0 11 -7 18 -10 9 -11 8 -5 -6z"/>
<path d="M22005 21650 c10 -11 20 -20 23 -20 3 0 -3 9 -13 20 -10 11 -20 20
-23 20 -3 0 3 -9 13 -20z"/>
<path d="M21951 21354 c0 -11 3 -14 6 -6 3 7 2 16 -1 19 -3 4 -6 -2 -5 -13z"/>
<path d="M11040 18349 c0 -9 -84 -10 -320 -5 -317 7 -320 7 -320 -14 0 -17 -6
-20 -46 -20 -33 0 -43 -3 -38 -12 6 -10 4 -10 -8 0 -29 23 -152 -19 -145 -51
1 -6 -7 -12 -18 -12 -16 0 -20 -7 -18 -28 1 -22 -2 -27 -23 -27 -35 0 -36 0
-68 -23 -23 -16 -46 -21 -112 -22 -46 -1 -81 1 -79 5 3 4 -12 10 -33 14 -68
10 -77 13 -112 31 -26 14 -53 18 -105 16 -38 -1 -71 -6 -73 -11 -2 -6 -28 -10
-57 -10 -43 0 -54 -3 -57 -17 -3 -14 -14 -18 -48 -19 -65 -1 -181 -21 -193
-33 -6 -6 -19 -11 -29 -11 -10 0 -18 -4 -18 -10 0 -5 8 -10 17 -10 9 0 13 -3
9 -7 -3 -4 -23 -6 -44 -5 -45 3 -171 -23 -185 -37 -6 -6 -21 -11 -34 -11 -12
0 -37 -9 -55 -20 -18 -11 -51 -20 -73 -21 -32 0 -36 -2 -20 -9 18 -8 17 -9 -7
-9 -15 -1 -42 -10 -60 -21 -18 -11 -50 -20 -70 -20 -21 0 -38 -4 -38 -10 0 -5
-19 -10 -42 -10 -32 0 -39 -3 -28 -10 12 -8 9 -10 -12 -10 -15 0 -30 -4 -33
-10 -3 -5 -16 -10 -28 -11 -21 0 -21 -1 -3 -8 16 -6 10 -10 -30 -21 -27 -7
-62 -14 -79 -16 -54 -5 -100 -20 -97 -33 3 -13 -103 -65 -130 -63 -10 0 -18
-3 -18 -9 0 -5 -15 -9 -32 -10 -26 0 -29 -2 -13 -8 16 -6 11 -11 -30 -24 -26
-9 -57 -24 -67 -34 -11 -9 -18 -11 -18 -5 0 18 -18 14 -42 -8 -12 -11 -31 -20
-42 -20 -12 0 -28 -5 -36 -10 -12 -7 -10 -11 10 -18 l25 -9 -24 -8 c-15 -5
-26 -3 -31 6 -7 10 -11 10 -24 -1 -9 -7 -14 -15 -11 -18 9 -9 -27 -42 -45 -42
-10 0 -29 -9 -44 -21 -14 -11 -30 -18 -35 -14 -6 3 -14 -2 -18 -10 -5 -9 -31
-24 -59 -33 -34 -12 -49 -24 -49 -36 0 -18 -32 -42 -42 -32 -3 3 5 10 18 15
24 10 24 10 -4 10 -26 1 -87 -44 -87 -64 0 -12 -31 -38 -37 -31 -4 3 2 12 12
20 11 8 14 15 8 19 -6 4 -13 0 -17 -8 -3 -8 -15 -15 -27 -15 -15 0 -19 -5 -15
-15 3 -9 0 -15 -8 -15 -7 0 -29 -2 -47 -5 -26 -4 -30 -3 -14 4 17 8 17 10 3
10 -9 1 -20 -4 -23 -10 -4 -6 -13 -8 -21 -5 -7 3 -16 0 -20 -6 -5 -7 -2 -8 6
-3 8 5 11 4 7 -3 -4 -5 -16 -8 -27 -5 -14 4 -20 0 -20 -11 0 -14 -18 -21 -43
-17 -11 2 -37 -25 -37 -37 0 -6 -7 -13 -16 -16 -23 -9 -26 -8 -18 7 4 6 -2 4
-14 -7 -12 -10 -21 -21 -20 -25 2 -11 -14 -41 -23 -41 -5 0 -44 -27 -88 -60
-77 -58 -119 -76 -108 -46 4 10 0 12 -14 9 -10 -3 -19 -13 -19 -22 0 -18 -62
-72 -95 -83 -16 -5 -17 -6 -2 -7 10 -1 17 -9 17 -21 0 -14 -11 -22 -42 -31
-43 -13 -78 -36 -145 -96 -20 -18 -40 -33 -45 -33 -10 0 -148 -135 -148 -145
0 -3 4 -4 9 0 5 3 12 1 16 -4 3 -6 -12 -15 -35 -22 -23 -7 -55 -28 -75 -51
-33 -35 -65 -53 -49 -27 3 6 -5 3 -20 -6 -14 -10 -26 -22 -26 -28 0 -5 10 -2
21 9 22 19 22 19 11 -1 -5 -11 -19 -28 -29 -37 -45 -42 -60 -58 -95 -96 -21
-23 -43 -42 -50 -42 -7 0 6 19 27 43 l40 42 -42 -40 c-27 -24 -43 -48 -43 -63
0 -12 -10 -33 -23 -45 -12 -12 -28 -34 -35 -49 -6 -16 -18 -28 -26 -28 -15 0
-29 -27 -21 -40 2 -4 -5 -16 -18 -26 l-22 -19 20 25 20 25 -22 -19 c-13 -10
-20 -22 -17 -27 2 -5 -4 -17 -16 -29 -11 -11 -20 -17 -20 -13 0 3 -9 -2 -20
-12 -16 -15 -18 -21 -7 -33 10 -13 8 -15 -15 -10 -20 4 -25 1 -21 -9 3 -8 -5
-25 -17 -38 -12 -13 -24 -34 -26 -47 -6 -42 -20 -83 -29 -80 -11 5 -25 -19
-25 -46 0 -12 -4 -30 -9 -40 -5 -9 -19 -38 -32 -65 -29 -61 -42 -72 -68 -58
-26 14 -31 14 -31 -4 0 -8 -9 -15 -20 -15 -11 0 -20 -6 -21 -12 -1 -7 -2 -24
-2 -38 -1 -15 -8 -25 -17 -25 -16 0 -45 -33 -45 -50 0 -5 -5 -10 -12 -10 -7 0
-18 -6 -24 -12 -7 -7 -9 -13 -5 -13 5 0 3 -7 -4 -15 -17 -20 -31 -19 -24 3 5
14 4 14 -4 2 -6 -8 -9 -17 -6 -21 6 -10 -23 -74 -40 -89 -9 -7 -16 -19 -16
-26 0 -8 -4 -14 -9 -14 -5 0 -12 -11 -15 -25 -3 -13 -20 -35 -36 -47 -17 -12
-30 -27 -30 -34 0 -6 -6 -17 -14 -23 -8 -7 -17 -23 -20 -37 -4 -15 -20 -37
-37 -51 -17 -14 -28 -32 -25 -39 3 -8 1 -14 -5 -14 -6 0 -7 -4 -4 -10 3 -5 3
-10 -2 -10 -4 0 -9 -14 -9 -32 -1 -18 -10 -39 -20 -47 -19 -16 -24 -41 -24
-122 0 -42 -4 -49 -45 -84 -25 -20 -45 -43 -45 -51 0 -8 -6 -14 -14 -14 -16 0
-26 -21 -26 -56 0 -13 -4 -24 -10 -24 -5 0 -10 -7 -10 -15 0 -8 -5 -15 -12
-15 -6 0 -8 -3 -5 -7 4 -3 0 -14 -9 -24 -9 -10 -14 -25 -11 -33 4 -9 2 -18 -2
-21 -5 -2 -14 -25 -20 -50 -6 -25 -16 -45 -21 -45 -6 0 -10 -8 -10 -19 0 -28
-21 -82 -30 -76 -4 3 -8 -5 -8 -18 -2 -49 -9 -113 -15 -133 -4 -12 -3 -34 3
-49 6 -15 8 -30 5 -33 -3 -4 -9 5 -12 18 l-7 25 -6 -26 c-4 -14 -4 -43 1 -65
l8 -39 -2 38 c-2 20 1 37 5 37 4 0 8 -7 8 -16 0 -8 5 -12 10 -9 6 4 8 11 5 16
-3 5 1 6 10 3 13 -5 15 -2 10 17 -4 15 0 32 10 44 16 20 16 20 6 -2 -16 -32
-13 -42 3 -13 8 14 12 29 9 33 -3 5 0 13 8 17 7 5 13 21 14 37 0 15 6 27 12
26 6 -1 9 7 6 20 -4 18 -3 19 6 7 9 -13 11 -12 12 5 1 11 2 26 2 32 -1 7 3 11
7 8 10 -6 55 85 51 104 -1 7 2 10 8 6 7 -4 11 4 11 20 0 14 4 24 8 21 12 -7
44 63 36 76 -4 7 -2 8 5 4 6 -4 14 0 18 11 4 10 21 41 38 68 62 98 105 173
105 183 0 6 3 12 8 14 17 7 81 102 75 111 -3 6 -1 7 5 3 7 -4 12 -3 12 3 0 5
29 48 65 96 36 47 65 88 65 90 0 2 11 16 26 30 14 14 22 30 19 35 -4 6 -1 9 7
8 7 -2 12 3 11 10 -2 6 1 12 6 12 6 0 64 65 131 145 66 79 125 147 130 150 6
4 8 11 4 16 -3 5 0 8 7 7 7 -2 18 7 24 20 7 12 16 26 20 30 5 4 5 0 0 -8 -4
-8 37 29 91 82 160 156 328 303 536 467 253 199 597 421 938 606 104 57 465
235 475 235 2 0 66 26 142 59 876 371 1856 592 2895 652 271 15 989 7 1228
-15 573 -52 979 -117 1444 -232 817 -202 1499 -481 2182 -892 170 -103 478
-311 569 -385 17 -14 66 -53 110 -88 306 -241 710 -651 924 -939 35 -47 68
-86 72 -88 5 -2 9 -10 9 -18 0 -9 5 -12 12 -8 6 4 8 3 5 -3 -9 -14 22 -55 35
-47 6 4 8 2 5 -3 -6 -10 53 -103 97 -152 11 -13 15 -21 8 -17 -8 5 1 -14 20
-42 18 -27 37 -47 42 -44 5 3 7 -2 3 -11 -3 -9 -2 -19 3 -22 4 -3 10 1 13 7 2
7 4 0 4 -16 0 -15 6 -32 13 -36 6 -4 12 -11 12 -16 0 -5 4 -8 10 -6 5 1 8 -3
5 -10 -6 -19 12 -50 25 -42 6 4 8 3 4 -4 -3 -6 6 -36 21 -66 18 -37 30 -51 35
-43 5 7 8 0 8 -18 0 -16 8 -41 16 -55 8 -14 13 -17 10 -7 -3 11 -2 15 4 12 6
-3 10 -18 10 -33 0 -15 5 -34 11 -42 9 -12 10 -11 5 5 -6 20 -6 20 9 1 8 -11
15 -27 15 -36 0 -9 6 -22 13 -29 10 -11 9 -12 -2 -6 -9 5 -12 4 -7 -3 4 -7 13
-12 20 -12 12 0 39 -75 35 -97 -3 -20 2 -34 11 -28 6 4 10 -6 10 -24 0 -16 5
-33 10 -36 6 -3 10 -16 11 -28 0 -21 1 -21 9 -2 7 17 9 14 10 -15 1 -19 4 -27
7 -17 8 31 23 18 17 -15 -4 -31 -4 -31 6 -9 8 19 6 48 -7 118 -9 51 -20 93
-24 93 -4 0 -11 21 -15 46 -3 25 -19 82 -34 127 -16 45 -26 85 -24 89 3 5 1 8
-5 8 -10 0 -28 49 -37 105 -3 17 -10 31 -15 33 -5 2 -9 17 -9 33 0 16 -5 29
-11 29 -11 0 -40 62 -42 91 -1 10 -4 16 -8 14 -11 -8 -29 46 -23 70 4 17 0 26
-16 35 -15 8 -20 18 -17 31 3 12 -4 29 -18 45 -21 22 -32 45 -49 97 -3 9 -5
20 -5 24 1 3 -13 15 -30 25 -25 16 -30 26 -29 54 1 20 -6 42 -17 54 -10 11
-15 23 -12 26 4 4 -8 25 -26 48 -17 23 -24 35 -14 27 10 -8 17 -9 17 -3 0 6
-9 14 -20 17 -11 4 -18 10 -15 15 3 5 1 11 -5 15 -5 3 -10 15 -10 26 0 10 -4
19 -10 19 -5 0 -17 17 -27 38 -9 20 -24 42 -33 49 -8 7 -11 13 -6 13 12 0 -25
56 -71 106 -13 14 -23 34 -23 44 0 11 -11 27 -26 36 -14 9 -23 23 -20 30 3 7
-8 27 -24 46 -56 63 -90 111 -90 124 0 8 -9 14 -20 14 -11 0 -20 6 -20 14 0 8
-13 30 -30 48 -24 26 -30 29 -30 14 0 -21 -10 -17 -14 6 -7 32 -29 78 -37 78
-5 0 -9 6 -9 13 0 6 -16 30 -35 51 -19 22 -35 43 -35 46 0 10 -104 114 -111
112 -4 0 -20 17 -35 40 -16 23 -82 95 -146 159 -65 64 -118 120 -118 125 -1 5
-15 18 -33 30 -18 11 -31 28 -31 37 1 9 -4 17 -11 17 -8 0 -30 16 -51 35 -42
40 -54 43 -54 14 0 -31 -17 -14 -24 25 -6 33 -65 106 -84 106 -5 0 -32 23 -61
50 -29 28 -56 50 -62 50 -5 0 -9 9 -9 19 0 11 -5 23 -12 27 -7 4 -8 3 -4 -4 4
-7 1 -12 -8 -12 -9 0 -16 4 -16 9 0 5 -17 20 -37 32 -21 13 -40 25 -43 28 -3
4 -30 23 -61 44 -31 21 -65 47 -74 57 -22 24 -51 26 -63 4 -7 -13 -11 -8 -17
22 -5 22 -9 45 -9 53 -1 8 -7 16 -15 19 -10 3 -12 0 -8 -12 4 -9 2 -16 -3 -16
-6 0 -11 5 -11 10 -1 6 -2 14 -3 19 0 5 -5 13 -10 18 -5 5 -6 3 -2 -4 4 -7 3
-13 -3 -13 -10 0 -74 50 -79 63 -2 4 -8 7 -13 7 -6 0 -7 -4 -4 -10 3 -5 -3
-10 -15 -10 -11 0 -23 7 -26 15 -4 8 -14 15 -23 15 -19 0 -81 65 -81 85 0 7
-9 15 -20 18 -11 3 -18 1 -15 -3 3 -5 -10 -4 -27 2 -18 6 -40 13 -48 16 -12 3
-11 6 5 13 14 6 10 7 -14 3 -23 -4 -36 -2 -42 7 -6 10 -29 13 -84 12 -42 -2
-75 1 -75 7 0 5 -7 7 -15 4 -19 -8 -75 17 -75 33 0 7 -4 13 -9 13 -5 0 -11 6
-14 14 -4 10 1 13 16 10 12 -3 2 6 -23 18 -24 13 -61 40 -81 61 -20 20 -46 37
-58 37 -12 0 -21 6 -21 15 0 8 -16 19 -39 25 -21 5 -49 20 -63 33 -14 13 -40
30 -59 37 -46 19 -86 40 -76 40 5 0 2 7 -7 15 -8 8 -19 15 -25 15 -6 0 -11 5
-11 10 0 6 -5 10 -11 10 -5 0 -7 -4 -4 -10 7 -11 -15 -5 -54 13 l-23 12 23 6
c23 6 22 7 -8 14 -18 4 -33 11 -33 16 0 5 -10 9 -23 9 -12 0 -32 7 -45 15 -20
14 -21 14 -16 0 8 -19 -5 -19 -30 0 -11 8 -32 15 -48 15 -30 0 -40 20 -10 20
9 1 2 7 -17 15 -46 20 -57 19 -36 -5 21 -24 2 -28 -21 -5 -9 8 -28 15 -43 15
-16 0 -39 9 -53 19 -13 11 -37 21 -53 23 -29 4 -30 4 -7 14 21 9 18 11 -30 23
-29 8 -63 21 -75 29 -15 9 -23 10 -23 3 0 -6 -17 -11 -40 -11 -22 0 -40 4 -40
9 0 5 -19 11 -42 15 -85 10 -118 18 -118 27 0 5 18 9 40 9 22 0 40 -4 40 -10
0 -5 18 -10 41 -10 54 0 41 17 -19 25 -26 3 -55 10 -65 16 -15 8 -206 50 -225
49 -4 0 2 -8 13 -16 19 -15 17 -15 -30 -9 -27 3 -83 5 -122 5 -58 -1 -73 2
-73 13 0 21 -22 27 -96 27 -35 0 -64 4 -64 8 0 17 -217 50 -345 53 -38 1 -101
7 -140 15 -38 7 -73 10 -77 8 -4 -3 -5 2 -2 10 3 9 16 16 28 17 19 1 19 2 -4
9 -14 4 -38 8 -55 8 -29 0 -29 0 -5 -8 20 -6 14 -8 -25 -8 -33 0 -43 2 -31 7
35 14 -70 32 -165 30 -70 -2 -90 0 -104 14 -18 19 -35 22 -35 7 0 -5 -24 -10
-52 -9 -29 0 -47 3 -40 6 6 2 12 13 12 24 0 18 -9 19 -122 19 -68 0 -215 5
-328 11 -113 5 -257 11 -320 12 -63 0 -99 4 -80 7 35 6 35 6 -14 13 -69 10
-96 9 -96 -4z m-417 -16 c-13 -2 -33 -2 -45 0 -13 2 -3 4 22 4 25 0 35 -2 23
-4z m1040 -30 c-13 -2 -33 -2 -45 0 -13 2 -3 4 22 4 25 0 35 -2 23 -4z m-1276
-329 c3 -8 11 -14 18 -14 19 0 55 -49 55 -74 0 -12 5 -27 12 -34 9 -9 8 -24
-1 -66 -10 -46 -20 -62 -58 -96 -43 -37 -50 -40 -107 -40 -90 0 -146 44 -165
129 -12 54 0 96 42 144 52 60 187 94 204 51z m3533 -50 c0 -2 -18 -4 -40 -4
-22 0 -40 3 -40 8 0 4 18 6 40 4 22 -2 40 -6 40 -8z m425 -157 c1 -1 6 -9 13
-18 11 -14 9 -16 -13 -11 -14 2 -25 8 -25 13 0 5 -7 9 -15 9 -8 0 -15 5 -15
11 0 7 10 9 27 4 16 -4 28 -7 28 -8z m-6825 -377 c0 -5 -5 -10 -11 -10 -5 0
-7 5 -4 10 3 6 8 10 11 10 2 0 4 -4 4 -10z m-1852 -1514 c-7 -8 -15 -12 -17
-11 -5 6 10 25 20 25 5 0 4 -6 -3 -14z m-987 -1879 c-10 -9 -11 -8 -5 6 3 10
9 15 12 12 3 -3 0 -11 -7 -18z m13176 -89 c-3 -8 -6 -5 -6 6 -1 11 2 17 5 13
3 -3 4 -12 1 -19z"/>
<path d="M12160 18270 c0 -5 10 -10 23 -10 18 0 19 2 7 10 -19 13 -30 13 -30
0z"/>
<path d="M12560 18190 c0 -5 18 -10 40 -10 22 0 40 5 40 10 0 6 -18 10 -40 10
-22 0 -40 -4 -40 -10z"/>
<path d="M14059 17880 c13 -11 33 -20 44 -20 28 0 11 14 -33 28 l-35 12 24
-20z"/>
<path d="M10915 17519 c-899 -35 -1782 -213 -2595 -522 -165 -63 -207 -80
-269 -108 -24 -11 -67 -29 -95 -40 -99 -39 -513 -249 -671 -340 -412 -237
-787 -507 -1125 -810 -188 -168 -434 -425 -423 -442 3 -5 1 -7 -5 -4 -6 4 -43
-32 -84 -81 -341 -410 -566 -768 -755 -1202 -43 -98 -115 -287 -132 -343 -5
-18 -23 -77 -39 -132 -67 -222 -117 -474 -144 -720 -17 -156 -17 -655 0 -795
91 -747 349 -1407 795 -2030 71 -98 323 -413 536 -670 53 -63 101 -122 108
-130 6 -8 60 -74 120 -147 59 -72 180 -220 268 -329 88 -109 189 -232 225
-274 36 -42 79 -93 95 -115 17 -21 84 -104 150 -184 67 -80 177 -215 245 -299
69 -84 165 -201 213 -260 49 -59 107 -129 129 -157 22 -27 47 -59 56 -70 10
-11 100 -121 202 -245 220 -268 216 -264 228 -256 6 3 8 -2 5 -13 -3 -11 3
-24 15 -32 11 -8 20 -18 20 -22 0 -5 13 -23 29 -40 15 -18 44 -52 63 -77 31
-40 83 -100 118 -136 6 -7 12 -17 12 -23 0 -5 11 -18 25 -29 13 -11 21 -23 17
-27 -4 -5 1 -5 10 -2 10 3 20 1 24 -5 4 -7 3 -8 -4 -4 -7 4 -12 3 -12 -3 0 -5
6 -14 13 -18 6 -4 25 -25 40 -46 16 -20 32 -35 38 -32 5 4 6 -2 2 -11 -5 -14
-3 -16 11 -11 10 4 15 3 11 -4 -9 -13 43 -81 56 -74 5 4 9 -2 9 -12 0 -10 20
-38 45 -61 25 -23 42 -42 40 -42 -3 0 -1 -9 5 -20 6 -11 15 -18 21 -15 5 4 9
0 9 -7 0 -7 27 -41 59 -75 65 -67 107 -123 81 -109 -8 5 1 -7 19 -27 36 -38
58 -52 26 -17 -10 11 -16 22 -13 25 7 7 50 -54 44 -63 -2 -4 2 -16 10 -27 8
-10 14 -13 14 -6 0 7 4 10 10 6 5 -3 6 -13 3 -22 -4 -10 -2 -14 4 -10 12 8 36
-16 26 -26 -9 -10 17 -37 37 -37 12 0 17 -6 13 -18 -3 -13 2 -18 18 -19 26 -2
40 -20 31 -41 -3 -10 -1 -13 6 -8 12 7 34 -26 30 -46 -2 -6 2 -12 7 -13 18 -1
70 -57 67 -72 -2 -9 1 -12 7 -8 6 3 11 1 11 -5 0 -7 7 -9 16 -6 14 5 15 4 4
-9 -8 -10 -9 -15 -1 -15 6 0 11 -7 11 -15 0 -8 6 -15 13 -15 17 0 98 -87 102
-109 1 -9 8 -15 14 -13 6 1 11 -4 11 -11 0 -6 25 -38 55 -71 30 -32 53 -61 50
-66 -2 -4 7 -12 21 -19 14 -6 22 -16 19 -21 -3 -5 0 -7 9 -4 9 3 19 -3 26 -18
11 -22 10 -22 -4 -4 -9 11 -16 16 -16 10 1 -13 26 -45 32 -39 3 3 11 -1 18
-10 8 -10 9 -15 1 -15 -6 0 -2 -9 9 -20 21 -21 35 -27 25 -10 -3 5 -4 10 -1
10 10 0 35 -58 28 -65 -4 -5 1 -5 10 -2 13 4 15 2 11 -10 -5 -12 -2 -15 9 -11
10 4 15 1 14 -10 0 -9 9 -21 22 -27 12 -5 22 -14 22 -18 0 -5 9 -20 19 -33 13
-16 18 -34 15 -52 l-5 -26 22 24 c21 24 21 24 15 3 -6 -18 -4 -22 7 -17 10 3
18 -2 22 -15 3 -12 13 -21 20 -21 8 0 19 -9 25 -19 16 -31 12 -36 -12 -15
l-23 19 19 -22 c10 -13 22 -20 27 -18 12 8 41 -26 35 -41 -3 -7 0 -16 6 -20 6
-4 8 -3 4 4 -4 6 1 10 13 9 16 -1 17 -5 10 -25 -5 -14 -7 -27 -4 -30 3 -3 5 0
5 7 0 12 35 -16 35 -28 1 -14 27 -52 32 -47 3 3 0 12 -7 21 -8 10 -9 15 -2 15
15 0 31 -32 24 -49 -3 -9 0 -11 7 -6 15 9 51 -27 52 -52 1 -13 3 -10 9 7 8 24
8 23 9 -7 1 -26 5 -33 21 -33 12 0 17 -5 14 -14 -3 -8 6 -26 21 -40 14 -14 23
-31 20 -36 -4 -6 -1 -9 5 -8 7 2 17 -6 23 -16 7 -11 25 -32 40 -46 19 -19 26
-32 21 -46 -5 -16 -4 -16 5 -4 10 13 15 11 36 -15 14 -16 23 -37 19 -45 -4
-12 -3 -12 7 -3 9 9 16 7 29 -10 10 -12 19 -31 22 -42 2 -13 10 -19 22 -17 13
3 17 -1 13 -11 -4 -11 4 -19 24 -26 32 -11 38 -27 12 -34 -11 -3 -6 -5 11 -6
24 -1 27 -3 16 -16 -10 -13 -9 -15 9 -15 14 0 21 -6 21 -20 0 -13 7 -20 20
-20 11 0 20 -5 20 -11 0 -5 15 -24 33 -40 27 -25 29 -31 17 -39 -8 -5 -10 -10
-5 -10 21 0 74 -60 68 -77 -4 -10 -2 -14 4 -10 13 8 53 -20 53 -38 0 -7 -6
-16 -12 -19 -7 -3 -2 -3 11 0 17 5 21 3 16 -6 -5 -9 -4 -11 4 -6 7 5 27 -8 48
-29 21 -21 39 -32 41 -26 5 14 82 15 82 1 0 -5 -9 -10 -20 -10 -21 0 -27 -30
-14 -64 9 -25 34 -19 34 7 0 35 12 41 32 15 16 -22 17 -22 31 -4 13 18 14 17
35 -9 15 -19 28 -26 42 -22 12 3 20 0 20 -8 0 -7 18 -15 40 -19 45 -7 53 -27
18 -44 l-23 -11 22 0 c12 -1 23 4 25 10 6 18 78 2 78 -16 0 -11 12 -15 40 -15
22 0 40 -4 40 -10 0 -6 32 -10 76 -10 62 0 79 3 90 18 10 13 27 17 83 17 60 0
71 3 71 17 0 13 -11 18 -42 21 -34 3 -30 4 19 5 51 2 65 6 75 22 7 11 21 20
32 20 15 0 16 -3 7 -14 -14 -16 6 -27 47 -25 15 1 20 3 11 6 -10 2 -19 14 -23
26 -6 23 4 40 11 20 3 -7 16 -13 29 -13 17 0 24 -6 24 -20 0 -27 34 -26 63 1
17 17 18 21 5 16 -10 -4 -17 -3 -17 1 4 27 -3 42 -21 42 -18 0 -19 3 -10 20 8
16 17 19 33 14 12 -4 24 -10 27 -14 7 -10 50 -23 50 -15 0 12 -29 35 -44 35
-19 0 -21 11 -4 28 15 15 48 16 48 2 0 -15 16 -12 34 5 17 18 11 45 -11 45 -8
0 -11 5 -8 10 11 18 56 11 74 -12 18 -22 18 -22 13 10 -3 24 0 32 11 32 8 0
20 7 27 15 7 9 19 14 26 11 8 -3 11 0 7 10 -6 16 54 81 70 76 5 -1 6 2 2 7 -8
14 23 59 46 66 10 4 18 9 18 13 -4 24 3 34 19 27 13 -5 14 -4 5 6 -10 10 -9
15 5 25 9 8 25 14 35 14 10 0 15 5 12 10 -3 6 -1 10 4 10 6 0 11 7 11 16 0 8
4 13 8 10 11 -7 42 30 42 49 0 8 9 15 20 15 11 0 18 5 15 12 -6 18 21 52 34
43 6 -3 9 0 5 8 -5 14 40 55 61 55 5 -1 13 7 17 16 4 9 12 24 17 34 4 9 13 17
20 17 6 0 16 6 20 14 5 7 13 11 19 7 6 -3 14 -2 17 4 4 6 1 9 -6 8 -26 -6 -17
22 21 63 22 24 40 46 40 50 0 4 9 9 21 12 12 3 18 10 14 16 -3 6 1 11 9 11 9
0 16 6 16 14 0 7 23 37 50 66 28 29 50 58 50 64 0 6 17 27 37 46 20 19 32 29
28 21 -6 -10 -4 -12 4 -7 7 5 10 15 7 23 -5 11 -2 13 9 9 9 -3 14 -2 11 2 -7
12 39 63 49 54 5 -4 6 0 2 10 -8 24 4 30 20 10 12 -16 13 -16 7 1 -5 13 -2 16
12 10 11 -4 15 -3 11 5 -8 12 12 62 25 62 5 0 13 11 18 25 5 14 17 28 25 31 8
4 15 13 15 21 0 8 8 13 17 11 12 -2 18 4 18 17 0 14 6 19 19 17 11 -2 16 1 14
10 -3 7 10 30 28 51 19 23 31 46 28 55 -4 14 -3 13 6 -1 9 -14 9 -22 -2 -35
-12 -15 -11 -16 5 -3 10 8 16 20 13 27 -5 13 10 29 28 29 5 0 10 10 11 22 2
29 33 63 51 56 8 -3 14 0 14 7 0 7 8 19 18 27 11 9 12 12 2 8 -8 -4 9 15 38
42 28 27 52 53 52 58 0 6 -7 1 -15 -9 -8 -11 -15 -15 -15 -8 0 6 10 18 23 27
12 8 22 19 22 23 0 4 5 6 12 4 7 -2 13 4 13 13 0 8 5 15 10 15 6 0 10 7 10 16
0 8 4 13 9 10 12 -8 82 84 74 98 -3 6 -3 8 2 4 10 -10 38 19 30 32 -4 6 1 7
11 3 13 -5 16 -2 12 8 -6 16 26 62 36 52 3 -4 6 1 6 11 0 9 4 15 9 11 5 -3 12
4 16 15 4 11 10 18 15 15 11 -7 33 22 26 33 -3 6 2 16 12 23 16 13 16 12 3 -6
-21 -31 53 53 108 124 28 35 48 68 44 74 -4 6 -1 7 7 2 10 -6 12 -4 7 9 -4 10
-3 15 3 11 11 -7 14 -5 88 82 30 35 51 63 48 63 -4 0 8 14 26 31 18 17 26 27
18 23 -8 -4 1 10 21 32 40 43 136 153 147 169 4 6 28 35 52 66 25 31 55 69 68
85 12 16 20 35 17 42 -3 7 0 10 5 7 6 -3 10 -1 10 6 0 7 3 10 6 6 10 -9 65 53
58 65 -4 6 -3 8 3 5 5 -3 33 22 61 56 27 34 101 124 164 200 62 76 118 146
123 154 6 9 18 25 28 37 130 150 203 246 199 260 -2 6 -1 8 3 4 10 -9 65 56
65 76 0 10 4 15 9 12 10 -7 81 81 81 101 0 7 6 13 14 13 7 0 21 11 30 25 9 14
12 25 7 25 -5 0 -12 -6 -14 -12 -4 -10 -6 -10 -6 0 -1 8 8 16 19 19 11 3 21
10 22 17 0 6 2 18 2 26 1 8 7 14 14 12 7 -1 12 4 12 10 0 18 66 99 74 91 3 -3
6 -1 6 6 0 7 4 10 9 7 9 -6 7 36 -4 56 -3 7 0 6 7 -3 13 -16 15 -15 35 0 19
16 19 19 4 30 -9 6 -11 9 -5 7 6 -3 17 6 24 19 7 13 17 22 21 19 5 -3 6 1 3 9
-3 8 -1 18 5 22 6 3 11 15 11 26 0 21 15 41 40 52 9 4 4 6 -10 4 -23 -3 -25
-1 -22 33 3 26 -2 40 -17 54 -19 17 -21 17 -21 3 0 -10 -6 -17 -14 -17 -7 0
-16 -10 -20 -22 -7 -29 -27 -11 -29 26 -1 15 -9 29 -19 32 -19 6 -25 44 -7 44
6 0 9 8 7 18 -2 11 -15 19 -38 22 -47 7 -56 40 -11 40 17 0 31 4 31 8 0 21
-30 46 -56 47 -15 0 -29 6 -32 13 -2 6 3 12 12 12 9 0 16 7 16 15 0 8 -4 15
-9 15 -5 0 -15 15 -21 34 -12 37 -30 49 -57 39 -16 -6 -16 -5 -5 10 16 19 8
37 -16 37 -15 0 -15 2 -2 10 26 17 -41 12 -74 -5 -16 -9 -32 -12 -35 -9 -3 4
0 9 7 11 18 7 14 31 -8 45 -11 7 -20 18 -20 25 0 7 -11 13 -23 13 -14 0 -40
16 -63 38 l-38 37 34 5 35 5 -45 13 c-96 29 -132 53 -97 65 24 8 -24 47 -59
47 -18 0 -39 7 -48 15 -8 8 -30 15 -50 15 -36 0 -56 14 -32 23 15 6 19 57 4
57 -5 0 -16 -7 -24 -15 -9 -8 -24 -15 -35 -15 -10 0 -19 7 -19 15 0 8 5 15 10
15 6 0 10 11 10 25 0 14 -4 25 -10 25 -5 0 -10 -5 -10 -11 0 -5 -4 -7 -10 -4
-5 3 -10 15 -10 26 0 16 -7 19 -40 19 -31 0 -40 4 -40 18 -1 9 -17 27 -37 40
l-36 23 -29 -21 c-22 -16 -36 -19 -63 -14 -19 3 -32 10 -29 16 3 5 -5 19 -19
32 -18 17 -34 22 -67 20 -39 -2 -42 -1 -37 22 3 19 0 24 -15 24 -11 0 -28 10
-39 23 -16 19 -20 20 -29 7 -9 -13 -15 -10 -40 18 -25 27 -37 32 -75 32 -57 0
-60 19 -2 22 39 1 40 1 8 5 -19 3 -44 0 -55 -5 -12 -6 -41 -13 -65 -15 -24 -3
-47 -9 -50 -14 -3 -5 -35 -16 -71 -25 -36 -9 -76 -19 -90 -23 -19 -5 -22 -4
-10 4 8 6 10 11 4 11 -5 0 -19 -7 -30 -16 -10 -8 -13 -12 -5 -8 9 4 12 3 7 -4
-5 -8 -15 -8 -32 -2 -32 13 -43 12 -24 0 13 -9 13 -10 0 -10 -9 0 -22 6 -29
13 -11 10 -13 9 -7 -1 9 -16 -29 -28 -103 -31 -8 -1 -11 -4 -8 -8 13 -12 -56
-45 -99 -46 -23 -1 -40 -5 -37 -9 4 -8 -3 -10 -49 -11 -15 -1 -24 -5 -22 -9 3
-4 -3 -7 -13 -6 -38 3 -64 -2 -58 -12 4 -6 -5 -10 -21 -10 -15 0 -41 -4 -58
-9 -58 -18 -151 -42 -181 -47 -16 -3 -43 -9 -60 -14 -16 -5 -102 -23 -190 -40
-212 -41 -207 -39 -200 -50 6 -10 -58 -16 -129 -12 -21 2 -44 -3 -52 -9 -8 -6
-23 -9 -35 -6 -12 3 -71 0 -133 -8 -207 -26 -594 -38 -966 -31 -195 3 -368 8
-385 10 -16 3 -68 7 -115 10 -47 3 -120 10 -163 16 -42 6 -82 8 -88 5 -5 -4
-15 -2 -22 3 -7 5 -41 12 -77 16 -77 8 -357 59 -479 87 -681 155 -1312 431
-1851 808 -73 51 -284 216 -345 269 -168 148 -264 245 -439 442 -177 200 -402
559 -517 825 -310 719 -331 1472 -63 2210 43 118 197 440 247 517 19 29 55 86
81 127 106 165 280 377 459 559 671 680 1621 1164 2672 1361 398 74 814 111
1266 111 107 0 199 4 205 8 13 12 86 32 116 32 13 0 43 -9 66 -20 22 -11 46
-20 52 -20 6 0 9 -4 6 -9 -3 -5 11 -11 32 -14 231 -29 385 -51 508 -72 673
-116 1278 -325 1861 -642 142 -77 473 -294 601 -394 471 -371 833 -786 1057
-1214 190 -363 306 -737 345 -1118 12 -114 19 -147 31 -147 5 0 9 -15 8 -32 0
-18 4 -58 10 -88 7 -30 12 -100 12 -154 1 -115 11 -155 34 -136 12 10 15 10
15 -3 0 -8 6 -18 13 -20 9 -4 9 -8 -2 -15 -23 -16 -1 -34 38 -31 50 4 64 -7
57 -45 -4 -24 0 -38 21 -61 14 -16 28 -25 30 -19 8 24 53 -9 53 -38 0 -15 7
-33 15 -42 8 -8 15 -20 15 -26 0 -7 13 -10 33 -8 30 3 32 1 35 -30 2 -18 8
-30 13 -26 15 9 50 -39 36 -49 -12 -7 -9 -10 79 -82 18 -14 39 -25 48 -25 8 0
20 -9 26 -20 6 -11 20 -20 30 -20 11 0 20 -4 20 -10 0 -5 18 -10 40 -10 30 0
40 4 40 16 0 8 5 12 10 9 7 -4 7 -12 0 -25 -18 -33 -11 -47 33 -66 23 -10 54
-31 69 -47 15 -15 37 -30 49 -32 12 -2 29 -11 39 -20 9 -8 23 -15 32 -15 8 0
23 -9 33 -20 10 -11 26 -20 37 -20 11 0 18 -7 18 -19 0 -23 13 -29 52 -23 19
3 28 10 28 23 0 13 7 19 24 19 14 0 28 5 31 10 8 13 55 13 55 1 0 -6 -4 -13
-10 -16 -5 -3 -10 -13 -10 -21 0 -23 44 -16 68 11 25 28 36 30 109 13 64 -15
72 -38 13 -38 -29 0 -40 4 -40 15 0 19 -11 19 -54 -2 -20 -10 -36 -25 -36 -33
0 -11 3 -12 8 -3 5 8 13 9 22 3 20 -13 60 -12 60 0 0 7 6 7 18 1 29 -16 102
-10 102 8 0 13 2 13 13 0 9 -12 25 -15 60 -11 l47 4 1 47 c1 44 1 45 11 17 8
-21 13 -25 19 -15 5 8 9 19 9 24 0 6 -5 3 -10 -5 -9 -13 -10 -13 -10 0 0 9 4
20 10 26 5 5 11 18 13 29 2 11 7 28 11 37 4 9 9 22 10 30 2 7 6 20 9 28 17 45
38 122 48 175 6 32 17 64 25 70 7 5 18 44 23 85 6 41 18 131 27 200 22 155 25
627 6 800 -66 598 -244 1153 -531 1650 -36 63 -70 123 -76 133 -50 88 -214
327 -289 423 -23 29 -63 81 -91 115 -27 35 -52 66 -55 69 -3 3 -52 59 -110
125 -145 168 -365 385 -520 515 -30 25 -72 61 -95 80 -69 61 -198 162 -296
232 -13 9 -51 36 -84 60 -166 122 -452 302 -656 414 -161 88 -517 264 -599
296 -14 5 -77 31 -140 58 -720 302 -1548 501 -2395 575 -371 33 -701 40 -1110
24z m-303 -74 c0 -5 -5 -11 -11 -13 -6 -2 -11 4 -11 13 0 9 5 15 11 13 6 -2
11 -8 11 -13z m-5702 -4265 c0 -23 -35 -28 -43 -6 -7 18 1 26 25 26 11 0 18
-7 18 -20z m114 -348 c8 -13 -11 -35 -23 -28 -16 10 -14 36 3 36 8 0 17 -4 20
-8z m8969 -3719 c-7 -2 -19 -2 -25 0 -7 3 -2 5 12 5 14 0 19 -2 13 -5z m-1720
-370 c-7 -2 -19 -2 -25 0 -7 3 -2 5 12 5 14 0 19 -2 13 -5z m2897 -1286 c0 -2
-9 -14 -20 -27 -11 -13 -20 -18 -20 -12 0 6 7 18 16 26 15 15 24 20 24 13z
m-2677 -3212 c-3 -9 -8 -14 -10 -11 -3 3 -2 9 2 15 9 16 15 13 8 -4z m-223
-229 c0 -3 -4 -8 -10 -11 -5 -3 -10 -1 -10 4 0 6 5 11 10 11 6 0 10 -2 10 -4z
m-530 -426 c0 -5 -5 -10 -11 -10 -5 0 -7 5 -4 10 3 6 8 10 11 10 2 0 4 -4 4
-10z m-860 -29 c30 -14 32 -16 14 -19 -37 -5 -89 13 -92 32 -4 20 15 17 78
-13z"/>
<path d="M15060 17340 c8 -5 24 -10 35 -10 17 0 17 2 5 10 -8 5 -24 10 -35 10
-17 0 -17 -2 -5 -10z"/>
<path d="M6909 17103 c-13 -16 -12 -17 4 -4 16 13 21 21 13 21 -2 0 -10 -8
-17 -17z"/>
<path d="M15698 17023 c6 -2 18 -2 25 0 6 3 1 5 -13 5 -14 0 -19 -2 -12 -5z"/>
<path d="M5293 15435 c-3 -9 -3 -19 1 -22 7 -7 36 16 36 28 0 15 -30 10 -37
-6z"/>
<path d="M17796 14007 c3 -10 9 -15 12 -12 3 3 0 11 -7 18 -10 9 -11 8 -5 -6z"/>
<path d="M4666 13893 c-6 -14 -5 -15 5 -6 7 7 10 15 7 18 -3 3 -9 -2 -12 -12z"/>
<path d="M17902 13760 c0 -14 2 -19 5 -12 2 6 2 18 0 25 -3 6 -5 1 -5 -13z"/>
<path d="M16210 12030 c0 -5 7 -10 15 -10 8 0 15 5 15 10 0 6 -7 10 -15 10 -8
0 -15 -4 -15 -10z"/>
<path d="M6685 11690 c3 -5 8 -10 11 -10 2 0 4 5 4 10 0 6 -5 10 -11 10 -5 0
-7 -4 -4 -10z"/>
<path d="M6701 11652 c-1 -13 -5 -20 -11 -17 -5 3 -10 1 -10 -4 0 -6 4 -11 8
-11 5 0 14 -11 20 -25 15 -32 16 -56 2 -35 -6 9 -10 10 -10 3 0 -7 9 -17 20
-23 17 -9 18 -14 7 -30 -9 -16 -9 -24 1 -41 10 -16 10 -19 1 -13 -7 4 -5 -3 4
-16 10 -14 14 -35 11 -54 -3 -25 -3 -27 5 -11 9 19 10 19 10 -3 1 -12 8 -34
17 -47 9 -14 12 -25 6 -25 -6 0 -8 -9 -5 -21 5 -16 8 -18 15 -7 7 10 8 8 7 -7
-3 -40 1 -56 13 -49 6 4 8 3 5 -4 -9 -14 3 -43 14 -36 5 3 9 -4 9 -15 0 -33
22 -74 32 -59 5 8 8 1 8 -20 0 -23 4 -31 12 -26 6 4 8 3 4 -4 -7 -11 37 -106
46 -97 2 3 5 -1 5 -7 0 -23 86 -157 96 -151 6 3 7 1 4 -4 -4 -6 1 -21 11 -34
9 -14 22 -31 27 -40 65 -103 82 -122 99 -112 5 3 6 1 2 -6 -7 -11 44 -88 101
-151 12 -14 45 -52 74 -85 28 -33 56 -59 61 -57 5 1 7 -1 4 -6 -4 -7 183 -195
274 -277 40 -35 215 -177 260 -210 22 -16 47 -36 55 -43 22 -20 235 -162 235
-157 0 2 12 -7 27 -21 14 -13 28 -22 31 -19 2 2 30 -14 60 -36 31 -22 62 -37
70 -34 7 2 11 1 8 -4 -3 -5 9 -16 27 -25 17 -8 45 -24 61 -35 17 -11 33 -18
38 -15 4 3 8 0 8 -6 0 -7 7 -9 16 -6 8 3 13 2 10 -3 -3 -4 14 -17 37 -27 23
-10 44 -21 47 -24 15 -16 163 -79 172 -74 6 4 8 3 4 -4 -5 -8 66 -44 94 -47 3
-1 25 -11 50 -24 37 -20 149 -65 185 -75 6 -2 24 -8 40 -15 61 -25 110 -42
125 -43 8 -1 25 -7 38 -14 14 -7 31 -10 40 -7 10 4 13 2 8 -5 -4 -7 -1 -12 8
-12 14 0 88 -22 126 -37 18 -7 10 -5 82 -27 32 -9 63 -14 69 -10 8 4 9 3 5 -4
-5 -8 2 -12 18 -12 14 0 43 -6 63 -14 69 -26 308 -75 338 -70 23 4 27 3 15 -5
-12 -9 -11 -11 10 -12 48 -4 159 -22 235 -39 28 -6 64 -10 80 -8 17 1 36 -2
43 -6 8 -4 39 -10 70 -11 31 -2 57 -4 57 -6 0 -2 21 -4 210 -25 205 -22 550
-22 780 0 105 10 193 23 196 29 4 5 18 7 31 4 20 -5 107 6 296 39 17 4 32 10
32 15 0 6 10 5 21 -2 15 -8 19 -8 15 0 -5 7 2 11 18 11 14 0 26 5 26 11 0 6 9
9 20 6 11 -3 17 -1 14 4 -3 6 4 8 18 5 30 -7 57 -9 88 -6 23 1 24 2 5 11 -16
7 -14 8 10 3 31 -6 223 35 313 67 29 11 64 19 77 19 14 0 25 5 25 11 0 6 7 8
16 5 10 -4 13 -2 8 6 -5 8 -2 9 11 4 24 -9 117 22 109 36 -5 7 1 9 14 6 12 -4
19 -2 16 3 -3 5 9 12 26 15 17 4 33 11 36 15 3 5 14 9 24 9 11 0 34 9 51 19
25 15 37 17 58 10 14 -6 22 -7 18 -3 -8 8 51 54 70 54 22 0 76 37 61 43 -7 3
7 4 31 2 24 -2 41 -1 38 2 -8 7 48 53 65 53 9 0 14 8 12 23 -1 12 -3 26 -3 31
-1 4 -36 5 -78 2 -48 -4 -84 -3 -93 4 -11 7 -1 10 40 11 46 2 41 3 -30 9 -69
5 -87 3 -96 -8 -9 -12 -13 -9 -23 19 -12 32 -13 33 -27 15 -7 -11 -14 -29 -14
-40 0 -17 -2 -18 -10 -6 -5 8 -19 15 -31 15 -12 0 -24 6 -27 13 -3 9 4 13 19
12 37 -3 49 -1 49 10 0 6 -10 10 -22 10 -12 0 -30 7 -40 17 -17 15 -18 15 -18
-10 0 -25 -3 -27 -40 -27 -38 0 -60 20 -22 20 15 1 15 2 -3 16 -13 10 -39 14
-75 13 -30 -1 -73 2 -95 5 -46 8 -54 8 -117 0 -27 -3 -48 -2 -48 2 0 11 -243
11 -294 0 -51 -11 -92 -32 -74 -39 8 -3 4 -8 -12 -15 -37 -15 -47 -31 -49 -87
-1 -27 -6 -51 -12 -53 -5 -2 -9 -20 -9 -41 0 -20 -6 -46 -14 -56 -13 -19 -15
-18 -36 18 -12 20 -30 37 -39 37 -10 0 -27 9 -39 20 -12 11 -25 20 -31 20 -5
0 -12 7 -15 16 -3 8 -10 13 -15 9 -5 -3 -12 -1 -16 5 -3 5 -1 10 4 10 15 0 14
30 -2 36 -7 2 -55 8 -107 12 -90 7 -95 8 -94 30 0 12 -5 22 -13 22 -7 0 -13
-7 -13 -15 0 -11 -12 -15 -45 -15 -25 0 -61 -9 -84 -21 -26 -13 -52 -19 -78
-16 l-38 4 45 3 c31 2 18 5 -45 9 -115 8 -575 -1 -515 -10 29 -4 0 -6 -80 -7
-76 0 -117 3 -105 8 12 5 -29 7 -102 6 -67 -1 -125 -5 -129 -9 -9 -9 -65 3
-89 20 -11 7 -36 13 -57 13 -21 0 -38 4 -38 8 0 10 -183 32 -268 32 -35 0 -61
4 -58 9 9 14 -20 21 -90 21 -49 0 -64 3 -64 15 0 10 15 15 53 18 28 2 3 3 -58
1 -108 -2 -139 4 -161 34 -5 8 -31 15 -60 17 -27 1 -71 8 -99 13 -60 13 -136
40 -115 42 26 1 -10 17 -60 26 -40 6 -42 8 -20 15 23 6 23 7 3 8 -12 1 -29 8
-37 17 -11 10 -31 15 -59 14 -60 -4 -67 -2 -67 15 0 8 -9 15 -20 15 -11 0 -20
4 -20 9 0 11 -139 32 -167 25 -11 -3 -24 -1 -27 5 -5 7 5 11 26 11 l33 1 -39
20 c-25 14 -35 24 -27 28 21 13 -10 28 -62 30 -27 1 -68 10 -92 21 -24 11 -50
20 -57 20 -7 0 -26 9 -43 20 -16 11 -40 20 -52 20 -35 0 -53 11 -53 31 0 12
-7 19 -20 19 -11 0 -23 7 -26 15 -4 8 -10 15 -16 15 -19 0 -99 41 -94 49 3 4
-8 5 -25 3 -20 -3 -29 0 -29 9 0 8 -26 26 -58 41 -33 17 -49 28 -37 29 14 0
10 5 -15 16 -19 8 -47 22 -62 29 -14 8 -33 14 -40 14 -8 0 -23 9 -34 21 -16
17 -16 22 -4 29 13 8 12 10 -2 10 -10 0 -18 7 -18 15 0 14 -6 16 -51 19 -9 1
-23 7 -31 13 -8 7 -18 10 -21 6 -4 -3 -18 0 -32 7 -17 9 -25 22 -25 41 0 24
-4 28 -29 27 -33 -1 -51 8 -51 25 0 15 -99 81 -108 72 -4 -4 2 -13 12 -21 11
-8 15 -14 9 -14 -16 0 -36 28 -28 40 3 5 2 10 -4 10 -5 0 -13 9 -16 20 -3 11
-12 20 -19 20 -8 0 -31 16 -52 35 -21 19 -46 35 -56 35 -10 0 -23 9 -30 20 -7
11 -20 20 -29 20 -17 0 -90 68 -119 110 -9 12 -25 23 -37 24 -12 0 -32 13 -45
27 -13 15 -33 30 -46 34 -12 3 -29 19 -37 35 -8 16 -25 35 -38 41 -12 6 -30
21 -39 33 -12 15 -18 17 -18 6 0 -8 -21 7 -50 35 -27 26 -47 52 -44 56 2 5
-23 34 -56 66 -33 32 -60 62 -60 67 0 4 -12 23 -27 41 -16 18 -40 47 -55 65
-16 17 -28 36 -28 40 0 4 -9 10 -20 13 -12 3 -20 14 -20 26 0 12 -6 21 -14 21
-17 0 -44 49 -40 73 1 9 -3 15 -9 14 -6 -1 -16 8 -22 20 -7 13 -14 20 -17 18
-3 -3 -8 1 -12 10 -4 11 -2 14 7 8 6 -4 -1 8 -16 26 -19 23 -25 36 -17 41 8 5
7 9 -3 13 -9 3 -21 22 -28 42 -11 30 -18 36 -36 32 -12 -2 -20 -1 -18 4 3 4 1
18 -4 31 l-10 23 0 -23z m1349 -1382 c0 -5 -5 -10 -11 -10 -5 0 -7 5 -4 10 3
6 8 10 11 10 2 0 4 -4 4 -10z m170 -75 c10 -12 10 -15 -4 -15 -9 0 -16 7 -16
15 0 8 2 15 4 15 2 0 9 -7 16 -15z m1297 -661 c-3 -3 -12 -4 -19 -1 -8 3 -5 6
6 6 11 1 17 -2 13 -5z m3253 -164 c0 -5 -4 -10 -10 -10 -5 0 -10 5 -10 10 0 6
5 10 10 10 6 0 10 -4 10 -10z m-430 -40 c0 -5 -5 -10 -11 -10 -5 0 -7 5 -4 10
3 6 8 10 11 10 2 0 4 -4 4 -10z m-340 -40 c0 -5 -6 -10 -14 -10 -8 0 -18 5
-21 10 -3 6 3 10 14 10 12 0 21 -4 21 -10z m-977 -27 c-13 -2 -33 -2 -45 0
-13 2 -3 4 22 4 25 0 35 -2 23 -4z m1382 -383 c3 -6 -1 -7 -9 -4 -18 7 -21 14
-7 14 6 0 13 -4 16 -10z"/>
<path d="M6681 11594 c0 -11 3 -14 6 -6 3 7 2 16 -1 19 -3 4 -6 -2 -5 -13z"/>
<path d="M17338 11183 c7 -3 16 -2 19 1 4 3 -2 6 -13 5 -11 0 -14 -3 -6 -6z"/>
<path d="M7220 10972 c0 -11 48 -57 54 -51 2 2 -9 17 -25 32 -16 16 -29 24
-29 19z"/>
<path d="M9167 9714 c6 -15 23 -19 23 -5 0 5 -7 11 -14 14 -10 4 -13 1 -9 -9z"/>
<path d="M9528 9573 c6 -2 18 -2 25 0 6 3 1 5 -13 5 -14 0 -19 -2 -12 -5z"/>
<path d="M9600 9550 c0 -5 9 -10 21 -10 11 0 17 5 14 10 -3 6 -13 10 -21 10
-8 0 -14 -4 -14 -10z"/>
<path d="M9768 9503 c7 -3 16 -2 19 1 4 3 -2 6 -13 5 -11 0 -14 -3 -6 -6z"/>
<path d="M12418 9463 c12 -2 32 -2 45 0 12 2 2 4 -23 4 -25 0 -35 -2 -22 -4z"/>
<path d="M12888 9433 c7 -3 16 -2 19 1 4 3 -2 6 -13 5 -11 0 -14 -3 -6 -6z"/>
<path d="M13098 9423 c7 -3 16 -2 19 1 4 3 -2 6 -13 5 -11 0 -14 -3 -6 -6z"/>
<path d="M10638 9348 c5 -5 16 -8 23 -6 8 3 3 7 -10 11 -17 4 -21 3 -13 -5z"/>
<path d="M10930 9356 c0 -2 7 -6 15 -10 8 -3 15 -1 15 4 0 6 -7 10 -15 10 -8
0 -15 -2 -15 -4z"/>
<path d="M11018 9333 c7 -3 16 -2 19 1 4 3 -2 6 -13 5 -11 0 -14 -3 -6 -6z"/>
<path d="M12270 9290 c0 -11 2 -20 4 -20 2 0 6 9 9 20 3 11 1 20 -4 20 -5 0
-9 -9 -9 -20z"/>
<path d="M12110 9285 c0 -8 2 -15 4 -15 2 0 6 7 10 15 3 8 1 15 -4 15 -6 0
-10 -7 -10 -15z"/>
<path d="M13650 9109 c0 -5 5 -7 10 -4 6 3 10 8 10 11 0 2 -4 4 -10 4 -5 0
-10 -5 -10 -11z"/>
<path d="M13180 9095 c-14 -8 -20 -14 -14 -15 5 0 19 7 30 15 24 18 16 19 -16
0z"/>
<path d="M14508 8923 c6 -2 18 -2 25 0 6 3 1 5 -13 5 -14 0 -19 -2 -12 -5z"/>
<path d="M15402 8100 c0 -14 2 -19 5 -12 2 6 2 18 0 25 -3 6 -5 1 -5 -13z"/>
<path d="M15525 8010 c-3 -5 -2 -10 4 -10 5 0 13 5 16 10 3 6 2 10 -4 10 -5 0
-13 -4 -16 -10z"/>
<path d="M15296 7614 c-5 -14 -4 -15 9 -4 17 14 19 20 6 20 -5 0 -12 -7 -15
-16z"/>
<path d="M451 5889 c-6 -18 -9 -34 -7 -36 2 -2 9 10 15 28 6 18 9 34 7 36 -2
2 -9 -10 -15 -28z"/>
<path d="M426 5825 c-9 -26 -7 -32 5 -12 6 10 9 21 6 23 -2 3 -7 -2 -11 -11z"/>
<path d="M396 5745 c-9 -26 -7 -32 5 -12 6 10 9 21 6 23 -2 3 -7 -2 -11 -11z"/>
<path d="M366 5665 c-9 -26 -7 -32 5 -12 6 10 9 21 6 23 -2 3 -7 -2 -11 -11z"/>
<path d="M346 5615 c-9 -26 -7 -32 5 -12 6 10 9 21 6 23 -2 3 -7 -2 -11 -11z"/>
<path d="M8916 5598 c3 -5 10 -6 15 -3 13 9 11 12 -6 12 -8 0 -12 -4 -9 -9z"/>
<path d="M321 5549 c-6 -18 -9 -34 -7 -36 2 -2 9 10 15 28 6 18 9 34 7 36 -2
2 -9 -10 -15 -28z"/>
<path d="M13599 5533 c-13 -16 -12 -17 4 -4 9 7 17 15 17 17 0 8 -8 3 -21 -13z"/>
<path d="M262 5394 c-22 -59 -37 -103 -32 -98 11 11 82 196 77 201 -2 2 -22
-45 -45 -103z"/>
<path d="M9130 5350 c0 -5 5 -10 11 -10 5 0 7 5 4 10 -3 6 -8 10 -11 10 -2 0
-4 -4 -4 -10z"/>
<path d="M205 5244 c-9 -22 -43 -109 -76 -194 -32 -85 -74 -197 -94 -248 -19
-51 -35 -98 -35 -105 1 -6 19 33 40 88 125 319 189 490 185 493 -2 2 -11 -13
-20 -34z"/>
<path d="M13241 5116 c-7 -8 -8 -17 -3 -20 6 -3 12 3 15 14 6 24 4 25 -12 6z"/>
<path d="M296 4865 c-9 -26 -7 -32 5 -12 6 10 9 21 6 23 -2 3 -7 -2 -11 -11z"/>
<path d="M266 4785 c-9 -26 -7 -32 5 -12 6 10 9 21 6 23 -2 3 -7 -2 -11 -11z"/>
<path d="M196 4593 c-6 -14 -5 -15 5 -6 7 7 10 15 7 18 -3 3 -9 -2 -12 -12z"/>
<path d="M126 4415 c-9 -26 -7 -32 5 -12 6 10 9 21 6 23 -2 3 -7 -2 -11 -11z"/>
<path d="M96 4335 c-9 -26 -7 -32 5 -12 6 10 9 21 6 23 -2 3 -7 -2 -11 -11z"/>
<path d="M61 4243 c-1 -6 -4 -20 -7 -30 -5 -17 -5 -17 6 0 6 10 9 23 6 30 -3
9 -5 9 -5 0z"/>
<path d="M27 4148 c-9 -23 -15 -43 -13 -45 2 -2 11 15 20 38 9 23 15 43 13 45
-2 2 -11 -15 -20 -38z"/>
<path d="M1 4074 c0 -11 3 -14 6 -6 3 7 2 16 -1 19 -3 4 -6 -2 -5 -13z"/>
<path d="M20969 3563 c-13 -16 -12 -17 4 -4 16 13 21 21 13 21 -2 0 -10 -8
-17 -17z"/>
<path d="M10860 3475 c-7 -8 -23 -15 -36 -15 -13 0 -24 -4 -24 -9 0 -5 -8 -12
-17 -14 -10 -3 -1 -5 20 -6 21 0 47 -6 58 -11 17 -10 19 -7 19 30 0 44 -2 47
-20 25z"/>
<path d="M20830 3405 c-7 -9 -11 -17 -9 -20 3 -2 10 5 17 15 14 24 10 26 -8 5z"/>
<path d="M0 3398 c0 -8 37 -50 83 -93 45 -44 132 -127 192 -185 61 -58 203
-193 315 -300 113 -108 313 -299 445 -425 132 -126 290 -277 350 -335 61 -58
169 -162 240 -230 72 -69 184 -177 250 -240 187 -179 342 -326 451 -429 54
-52 153 -146 220 -210 100 -97 300 -288 514 -493 25 -23 103 -98 173 -165 70
-68 132 -123 138 -123 5 0 7 -5 4 -10 -4 -6 -3 -9 2 -8 4 2 41 -31 81 -71 39
-41 72 -71 72 -65 0 14 -186 194 -194 187 -3 -3 -6 1 -6 10 0 10 -7 17 -17 17
-9 0 -13 3 -10 7 4 3 -5 15 -20 25 -16 10 -24 18 -20 18 5 0 -11 17 -35 38
-24 20 -70 65 -102 99 -32 34 -62 61 -65 60 -6 -3 -51 39 -47 45 2 2 -6 11
-16 21 -10 9 -18 16 -18 14 0 -2 -39 35 -87 82 -244 235 -461 443 -798 765
-293 280 -302 288 -1000 961 -148 143 -317 305 -375 360 -58 55 -215 206 -350
335 -349 335 -370 355 -370 338z"/>
<path d="M2876 3387 c3 -10 9 -15 12 -12 3 3 0 11 -7 18 -10 9 -11 8 -5 -6z"/>
<path d="M11578 3373 c7 -3 16 -2 19 1 4 3 -2 6 -13 5 -11 0 -14 -3 -6 -6z"/>
<path d="M3000 3230 c6 -11 13 -20 16 -20 2 0 0 9 -6 20 -6 11 -13 20 -16 20
-2 0 0 -9 6 -20z"/>
<path d="M3030 3191 c0 -6 4 -13 10 -16 6 -3 7 1 4 9 -7 18 -14 21 -14 7z"/>
<path d="M3256 2902 c10 -18 28 -41 38 -50 12 -10 8 0 -9 23 -40 56 -51 66
-29 27z"/>
<path d="M3347 2780 c10 -11 19 -20 21 -20 1 0 -2 9 -8 20 -6 11 -15 20 -20
20 -6 0 -2 -9 7 -20z"/>
<path d="M3380 2740 c0 -5 5 -10 10 -10 6 0 10 -6 10 -12 0 -7 16 -31 36 -53
l35 -40 -41 63 c-40 61 -50 71 -50 52z"/>
<path d="M22431 2673 c-66 -63 -94 -89 -190 -175 -36 -32 -61 -58 -57 -58 11
0 111 88 231 203 33 32 67 62 75 67 8 5 12 12 8 15 -3 3 -33 -20 -67 -52z"/>
<path d="M3477 2624 c-6 -7 34 -60 92 -123 31 -33 31 -33 7 -3 -14 19 -26 37
-26 40 0 4 -16 23 -35 43 -19 20 -31 39 -28 43 4 3 4 6 1 6 -2 0 -7 -3 -11 -6z"/>
<path d="M20059 2503 c-13 -16 -12 -17 4 -4 16 13 21 21 13 21 -2 0 -10 -8
-17 -17z"/>
<path d="M3607 2450 c27 -42 80 -106 96 -118 9 -7 15 -17 12 -22 -3 -5 3 -15
15 -22 11 -7 20 -18 20 -25 0 -6 10 -19 22 -27 12 -9 18 -16 13 -16 -6 0 -3
-6 5 -13 8 -7 35 -39 60 -72 24 -33 56 -73 71 -90 15 -16 40 -48 55 -70 15
-22 36 -48 47 -57 11 -10 17 -18 14 -18 -6 0 19 -32 153 -200 15 -19 45 -57
65 -84 21 -28 42 -55 46 -60 57 -73 98 -126 114 -147 72 -95 287 -369 308
-391 15 -16 24 -28 21 -28 -3 0 33 -46 78 -103 46 -56 100 -126 121 -155 21
-28 44 -52 50 -52 5 0 8 -3 4 -6 -3 -3 3 -15 13 -27 10 -12 54 -69 98 -126
l79 -103 70 -4 c49 -2 70 1 70 9 0 8 -19 11 -62 9 l-62 -4 -43 54 c-24 29 -50
59 -59 66 -8 6 -12 12 -8 12 4 0 -21 35 -56 78 -35 42 -98 123 -140 179 -42
56 -89 114 -103 128 -13 14 -22 25 -19 25 4 0 -22 35 -57 78 -35 42 -76 95
-92 117 -16 22 -34 45 -41 50 -6 6 -47 57 -90 115 -44 58 -88 113 -100 124
-11 10 -19 22 -18 27 2 5 -1 9 -6 9 -5 0 -12 8 -15 18 -3 9 -23 35 -43 57 -21
22 -59 69 -85 105 -25 36 -60 80 -77 98 -17 18 -31 37 -31 41 0 4 -17 26 -38
49 -22 23 -37 42 -34 42 3 0 -6 12 -19 28 -14 15 -34 39 -45 53 -41 57 -178
235 -195 254 -10 11 -29 32 -43 48 -14 15 -26 31 -27 35 -1 4 -14 22 -28 41
-30 38 -99 114 -84 91z"/>
<path d="M22131 2395 c-17 -20 -31 -34 -31 -31 0 2 -24 -19 -52 -46 -29 -27
-86 -80 -127 -116 -112 -101 -177 -165 -165 -161 7 2 60 49 120 104 59 55 138
127 174 160 107 98 134 125 123 125 -6 0 -25 -16 -42 -35z"/>
<path d="M16624 2254 c-49 -92 -104 -194 -122 -228 -18 -33 -52 -97 -74 -141
-23 -44 -49 -91 -58 -105 -10 -14 -44 -77 -77 -140 -33 -63 -75 -142 -93 -175
-18 -33 -55 -103 -82 -155 -28 -52 -67 -126 -88 -165 -21 -38 -60 -113 -87
-165 -28 -52 -61 -115 -75 -140 -69 -126 -118 -219 -118 -227 0 -4 14 17 31
47 64 115 158 289 219 405 34 66 66 125 70 130 4 6 32 57 62 115 93 177 528
992 560 1048 17 29 28 55 25 58 -2 3 -44 -70 -93 -162z"/>
<path d="M3810 2396 c0 -2 8 -10 18 -17 15 -13 16 -12 3 4 -13 16 -21 21 -21
13z"/>
<path d="M21696 1995 c-21 -19 -35 -35 -31 -35 4 0 25 16 46 35 22 19 35 35
31 35 -4 0 -25 -16 -46 -35z"/>
<path d="M4120 1994 c1 -13 50 -71 50 -59 0 6 -11 23 -25 39 -14 16 -25 25
-25 20z"/>
<path d="M21550 1860 c-52 -49 -92 -90 -87 -90 4 0 33 24 65 54 31 30 75 70
97 90 22 19 36 36 30 35 -5 0 -53 -40 -105 -89z"/>
<path d="M4180 1916 c0 -2 8 -10 18 -17 15 -13 16 -12 3 4 -13 16 -21 21 -21
13z"/>
<path d="M4275 1796 c10 -14 19 -26 22 -26 7 0 -17 39 -28 46 -6 3 -3 -5 6
-20z"/>
<path d="M21418 1738 c-13 -13 -65 -60 -115 -106 l-91 -83 -399 5 c-219 3
-650 8 -957 11 -307 3 -562 8 -567 10 -4 3 -10 1 -13 -4 -3 -5 66 -11 162 -15
140 -5 1519 -20 1721 -18 60 0 66 2 105 39 117 110 190 183 185 183 -3 0 -17
-10 -31 -22z"/>
<path d="M4310 1746 c0 -2 8 -10 18 -17 15 -13 16 -12 3 4 -13 16 -21 21 -21
13z"/>
<path d="M4349 1693 c6 -12 16 -25 21 -28 17 -11 11 5 -11 28 l-21 22 11 -22z"/>
<path d="M3466 1602 c-2 -4 30 -6 72 -4 117 4 127 9 25 11 -50 0 -94 -2 -97
-7z"/>
<path d="M3675 1601 c3 -6 12 -11 18 -11 12 0 53 -46 89 -99 10 -14 18 -21 18
-15 0 19 -94 129 -114 132 -11 2 -15 -1 -11 -7z"/>
<path d="M4433 1585 c0 -8 4 -12 9 -9 5 3 6 10 3 15 -9 13 -12 11 -12 -6z"/>
<path d="M4510 1485 c0 -4 12 -22 28 -40 15 -18 35 -43 45 -56 9 -13 17 -19
17 -14 0 12 -90 121 -90 110z"/>
<path d="M16811 1474 c0 -11 3 -14 6 -6 3 7 2 16 -1 19 -3 4 -6 -2 -5 -13z"/>
<path d="M3661 1464 c0 -11 3 -14 6 -6 3 7 2 16 -1 19 -3 4 -6 -2 -5 -13z"/>
<path d="M3824 1448 c17 -25 36 -42 21 -18 -3 6 -1 10 4 10 6 0 11 5 11 11 0
5 -5 7 -10 4 -6 -4 -18 -1 -27 7 -14 11 -13 8 1 -14z"/>
<path d="M3430 1449 c0 -5 5 -7 10 -4 6 3 10 8 10 11 0 2 -4 4 -10 4 -5 0 -10
-5 -10 -11z"/>
<path d="M3878 1453 c7 -3 16 -2 19 1 4 3 -2 6 -13 5 -11 0 -14 -3 -6 -6z"/>
<path d="M3965 1450 c33 -4 63 -6 67 -4 4 2 24 -13 44 -33 36 -36 37 -37 15
-6 -30 44 -35 46 -115 49 l-71 2 60 -8z"/>
<path d="M3645 1431 c-3 -5 -1 -12 5 -16 5 -3 10 1 10 9 0 18 -6 21 -15 7z"/>
<path d="M16821 1414 c0 -11 3 -14 6 -6 3 7 2 16 -1 19 -3 4 -6 -2 -5 -13z"/>
<path d="M3867 1389 c7 -7 15 -10 18 -7 3 3 -2 9 -12 12 -14 6 -15 5 -6 -5z"/>
<path d="M3885 1359 c-4 -6 -5 -12 -2 -15 2 -3 7 2 10 11 7 17 1 20 -8 4z"/>
<path d="M4155 1321 c27 -28 45 -51 40 -51 -6 0 2 -11 17 -25 21 -19 37 -25
70 -23 l43 1 -39 4 c-33 4 -98 33 -72 33 11 0 -72 92 -93 104 -9 5 6 -14 34
-43z"/>
<path d="M16831 1354 c0 -11 3 -14 6 -6 3 7 2 16 -1 19 -3 4 -6 -2 -5 -13z"/>
<path d="M16665 1349 c-4 -6 -5 -12 -2 -15 2 -3 7 2 10 11 7 17 1 20 -8 4z"/>
<path d="M3631 1334 c0 -11 3 -14 6 -6 3 7 2 16 -1 19 -3 4 -6 -2 -5 -13z"/>
<path d="M3870 1315 c0 -8 4 -15 10 -15 5 0 7 7 4 15 -4 8 -8 15 -10 15 -2 0
-4 -7 -4 -15z"/>
<path d="M3401 1304 c0 -11 3 -14 6 -6 3 7 2 16 -1 19 -3 4 -6 -2 -5 -13z"/>
<path d="M16841 1284 c0 -11 3 -14 6 -6 3 7 2 16 -1 19 -3 4 -6 -2 -5 -13z"/>
<path d="M3865 1281 c-3 -5 -1 -12 5 -16 5 -3 10 1 10 9 0 18 -6 21 -15 7z"/>
<path d="M3391 1254 c0 -11 3 -14 6 -6 3 7 2 16 -1 19 -3 4 -6 -2 -5 -13z"/>
<path d="M4670 1266 c0 -2 7 -7 16 -10 8 -3 12 -2 9 4 -6 10 -25 14 -25 6z"/>
<path d="M16600 1240 c-6 -11 -8 -20 -6 -20 3 0 10 9 16 20 6 11 8 20 6 20 -3
0 -10 -9 -16 -20z"/>
<path d="M3853 1225 c4 -8 2 -17 -3 -20 -6 -4 -10 -16 -10 -28 1 -18 4 -15 15
12 18 40 19 51 4 51 -6 0 -9 -7 -6 -15z"/>
<path d="M16852 1220 c0 -14 2 -19 5 -12 2 6 2 18 0 25 -3 6 -5 1 -5 -13z"/>
<path d="M3601 1204 c0 -11 3 -14 6 -6 3 7 2 16 -1 19 -3 4 -6 -2 -5 -13z"/>
<path d="M4715 1210 c3 -5 8 -10 11 -10 2 0 4 5 4 10 0 6 -5 10 -11 10 -5 0
-7 -4 -4 -10z"/>
<path d="M4238 1192 c-3 -9 -1 -26 3 -37 6 -15 8 -11 8 18 1 40 -4 48 -11 19z"/>
<path d="M3371 1174 c0 -11 3 -14 6 -6 3 7 2 16 -1 19 -3 4 -6 -2 -5 -13z"/>
<path d="M3591 1164 c0 -11 3 -14 6 -6 3 7 2 16 -1 19 -3 4 -6 -2 -5 -13z"/>
<path d="M4390 1175 c0 -4 9 -18 20 -32 11 -14 20 -22 20 -18 0 4 -9 18 -20
32 -11 14 -20 22 -20 18z"/>
<path d="M4756 1162 c-3 -5 1 -9 9 -9 8 0 12 4 9 9 -3 4 -7 8 -9 8 -2 0 -6 -4
-9 -8z"/>
<path d="M16861 1154 c0 -11 3 -14 6 -6 3 7 2 16 -1 19 -3 4 -6 -2 -5 -13z"/>
<path d="M3827 1121 c-3 -16 -9 -40 -13 -55 -3 -14 -2 -26 3 -26 6 0 10 13 11
29 0 17 5 39 11 50 6 11 7 22 2 25 -5 3 -11 -7 -14 -23z"/>
<path d="M3360 1129 c0 -5 5 -7 10 -4 6 3 10 8 10 11 0 2 -4 4 -10 4 -5 0 -10
-5 -10 -11z"/>
<path d="M3981 1124 c0 -11 3 -14 6 -6 3 7 2 16 -1 19 -3 4 -6 -2 -5 -13z"/>
<path d="M4206 1032 c-10 -59 -19 -116 -21 -127 -1 -11 -8 -40 -15 -64 -8 -31
-8 -47 -1 -54 8 -8 11 -4 10 13 0 14 7 57 16 95 9 39 18 86 20 105 5 39 10 63
20 101 4 15 3 29 -2 32 -5 3 -17 -42 -27 -101z"/>
<path d="M3576 1115 c-3 -9 -6 -24 -5 -33 0 -9 5 -4 10 12 9 32 6 48 -5 21z"/>
<path d="M4311 1104 c0 -11 3 -14 6 -6 3 7 2 16 -1 19 -3 4 -6 -2 -5 -13z"/>
<path d="M4800 1100 c6 -11 15 -20 20 -20 6 0 2 9 -7 20 -10 11 -19 20 -21 20
-1 0 2 -9 8 -20z"/>
<path d="M16872 1085 c0 -16 2 -22 5 -12 2 9 2 23 0 30 -3 6 -5 -1 -5 -18z"/>
<path d="M4470 1071 c0 -6 4 -13 10 -16 6 -3 7 1 4 9 -7 18 -14 21 -14 7z"/>
<path d="M3551 1024 c-9 -20 -9 -30 -1 -38 9 -8 11 -7 9 4 -1 8 1 23 6 33 4
10 5 20 3 22 -3 3 -10 -7 -17 -21z"/>
<path d="M4296 1024 c-4 -14 -5 -28 -3 -31 3 -2 8 8 11 23 4 14 5 28 3 31 -3
2 -8 -8 -11 -23z"/>
<path d="M3337 1011 c-3 -16 -9 -42 -13 -57 -4 -16 -4 -26 0 -22 4 3 11 21 16
40 4 18 11 41 15 51 4 9 3 17 -3 17 -5 0 -12 -13 -15 -29z"/>
<path d="M3950 1029 c0 -5 5 -7 10 -4 6 3 10 8 10 11 0 2 -4 4 -10 4 -5 0 -10
-5 -10 -11z"/>
<path d="M4890 988 c22 -29 51 -70 65 -90 14 -21 28 -38 30 -38 3 0 -5 15 -17
34 -36 53 -108 146 -114 146 -2 0 13 -24 36 -52z"/>
<path d="M16882 1020 c0 -14 2 -19 5 -12 2 6 2 18 0 25 -3 6 -5 1 -5 -13z"/>
<path d="M3802 1010 c0 -14 2 -19 5 -12 2 6 2 18 0 25 -3 6 -5 1 -5 -13z"/>
<path d="M3946 997 c3 -10 9 -15 12 -12 3 3 0 11 -7 18 -10 9 -11 8 -5 -6z"/>
<path d="M3790 968 c0 -7 -3 -24 -6 -38 -4 -18 -1 -16 10 9 19 39 19 41 6 41
-5 0 -10 -6 -10 -12z"/>
<path d="M4550 975 c0 -4 9 -18 20 -32 11 -14 20 -22 20 -18 0 4 -9 18 -20 32
-11 14 -20 22 -20 18z"/>
<path d="M16892 955 c0 -16 2 -22 5 -12 2 9 2 23 0 30 -3 6 -5 -1 -5 -18z"/>
<path d="M3541 954 c0 -11 3 -14 6 -6 3 7 2 16 -1 19 -3 4 -6 -2 -5 -13z"/>
<path d="M3930 950 c0 -5 5 -10 10 -10 6 0 10 5 10 10 0 6 -4 10 -10 10 -5 0
-10 -4 -10 -10z"/>
<path d="M4272 920 c0 -14 2 -19 5 -12 2 6 2 18 0 25 -3 6 -5 1 -5 -13z"/>
<path d="M3531 909 c-1 -20 18 -47 77 -110 110 -118 142 -155 142 -168 0 -6 5
-11 11 -11 7 0 6 8 -3 23 -17 25 -16 60 5 134 8 28 13 54 10 57 -2 2 0 13 5
23 6 11 7 25 3 32 -5 7 -15 -24 -25 -76 -10 -48 -21 -94 -25 -101 -9 -15 -182
166 -193 201 -5 20 -6 20 -7 -4z"/>
<path d="M3926 905 c4 -8 8 -15 10 -15 2 0 4 7 4 15 0 8 -4 15 -10 15 -5 0 -7
-7 -4 -15z"/>
<path d="M3317 896 c4 -8 58 -67 118 -132 125 -134 238 -250 210 -216 -10 12
-16 24 -14 26 3 3 42 6 87 7 45 1 85 6 88 11 3 5 2 8 -3 7 -4 -1 -10 0 -13 1
-3 1 -44 2 -91 3 l-85 2 -80 85 c-44 47 -107 115 -140 152 -32 36 -65 67 -72
67 -8 1 -10 -4 -5 -13z"/>
<path d="M3362 905 c9 -10 158 -17 158 -8 0 5 -37 9 -81 10 -45 1 -79 0 -77
-2z"/>
<path d="M4615 890 c10 -11 20 -20 23 -20 3 0 -3 9 -13 20 -10 11 -20 20 -23
20 -3 0 3 -9 13 -20z"/>
<path d="M16902 890 c0 -14 2 -19 5 -12 2 6 2 18 0 25 -3 6 -5 1 -5 -13z"/>
<path d="M4261 878 c0 -9 -4 -25 -7 -35 -5 -17 -5 -17 6 0 6 10 9 25 7 35 -4
15 -5 15 -6 0z"/>
<path d="M3915 860 c3 -5 8 -10 11 -10 2 0 4 5 4 10 0 6 -5 10 -11 10 -5 0 -7
-4 -4 -10z"/>
<path d="M4661 834 c13 -17 26 -30 28 -27 3 2 -8 16 -24 31 l-28 27 24 -31z"/>
<path d="M5000 855 c0 -15 71 -118 77 -111 3 3 -8 22 -24 43 -17 21 -35 47
-41 58 -6 11 -12 15 -12 10z"/>
<path d="M16912 830 c0 -14 2 -19 5 -12 2 6 2 18 0 25 -3 6 -5 1 -5 -13z"/>
<path d="M3902 824 c4 -3 2 -20 -3 -37 -11 -38 -23 -124 -16 -117 3 3 10 30
16 60 6 30 13 65 17 78 4 14 2 22 -7 22 -7 0 -10 -3 -7 -6z"/>
<path d="M4246 802 c-3 -5 -8 -29 -11 -53 -6 -51 0 -42 14 19 9 41 8 51 -3 34z"/>
<path d="M4715 759 c16 -19 34 -38 39 -44 5 -5 1 4 -9 21 -9 17 -27 36 -39 44
-16 9 -13 4 9 -21z"/>
<path d="M16922 755 c0 -16 2 -22 5 -12 2 9 2 23 0 30 -3 6 -5 -1 -5 -18z"/>
<path d="M4158 764 c-5 -4 -8 -16 -8 -28 0 -14 3 -17 11 -9 6 6 9 19 7 28 -1
9 -6 13 -10 9z"/>
<path d="M16932 695 c0 -16 2 -22 5 -12 2 9 2 23 0 30 -3 6 -5 -1 -5 -18z"/>
<path d="M4134 658 c-9 -65 -12 -84 -20 -123 -4 -20 -3 -27 3 -20 6 6 16 39
22 75 6 36 14 77 17 93 3 15 1 27 -4 27 -6 0 -13 -24 -18 -52z"/>
<path d="M5110 701 c0 -6 4 -13 10 -16 6 -3 7 1 4 9 -7 18 -14 21 -14 7z"/>
<path d="M4221 684 c0 -11 3 -14 6 -6 3 7 2 16 -1 19 -3 4 -6 -2 -5 -13z"/>
<path d="M4796 667 c3 -10 9 -15 12 -12 3 3 0 11 -7 18 -10 9 -11 8 -5 -6z"/>
<path d="M5140 660 c0 -5 5 -10 11 -10 5 0 7 5 4 10 -3 6 -8 10 -11 10 -2 0
-4 -4 -4 -10z"/>
<path d="M4201 598 c-7 -35 -14 -72 -17 -83 -4 -15 -3 -17 4 -5 11 18 35 140
29 146 -2 3 -10 -24 -16 -58z"/>
<path d="M16942 630 c0 -14 2 -19 5 -12 2 6 2 18 0 25 -3 6 -5 1 -5 -13z"/>
<path d="M3856 604 c-3 -8 -10 -13 -15 -9 -5 3 -12 1 -15 -4 -3 -4 2 -8 12 -7
9 0 40 -23 68 -52 28 -29 49 -52 47 -52 -2 0 40 -44 93 -97 85 -85 98 -95 105
-78 11 30 10 40 -2 28 -9 -9 -17 -8 -34 3 -22 14 -22 16 -9 77 16 76 17 87 4
87 -5 0 -10 -9 -10 -21 0 -11 -5 -41 -11 -66 l-12 -45 -76 80 c-115 122 -135
146 -133 160 4 17 -5 15 -12 -4z"/>
<path d="M5199 585 c5 -11 17 -29 26 -40 l16 -20 -10 20 c-5 11 -17 29 -26 40
l-16 20 10 -20z"/>
<path d="M15720 564 c-12 -19 -20 -38 -17 -40 3 -3 15 12 27 35 25 50 19 54
-10 5z"/>
<path d="M16952 565 c0 -16 2 -22 5 -12 2 9 2 23 0 30 -3 6 -5 -1 -5 -18z"/>
<path d="M3676 517 c3 -10 9 -15 12 -12 3 3 0 11 -7 18 -10 9 -11 8 -5 -6z"/>
<path d="M4910 516 c0 -2 8 -10 18 -17 15 -13 16 -12 3 4 -13 16 -21 21 -21
13z"/>
<path d="M16962 495 c0 -16 2 -22 5 -12 2 9 2 23 0 30 -3 6 -5 -1 -5 -18z"/>
<path d="M15655 440 c-19 -38 -33 -70 -30 -70 2 0 21 32 40 70 19 39 33 70 30
70 -2 0 -21 -31 -40 -70z"/>
<path d="M5270 491 c0 -6 4 -13 10 -16 6 -3 7 1 4 9 -7 18 -14 21 -14 7z"/>
<path d="M4171 453 c-17 -68 -23 -109 -12 -93 5 8 12 33 15 55 4 22 9 48 12
58 3 9 3 17 0 17 -3 0 -10 -17 -15 -37z"/>
<path d="M4960 460 c6 -11 13 -20 16 -20 2 0 0 9 -6 20 -6 11 -13 20 -16 20
-2 0 0 -9 6 -20z"/>
<path d="M3725 450 c3 -5 8 -10 11 -10 2 0 4 5 4 10 0 6 -5 10 -11 10 -5 0 -7
-4 -4 -10z"/>
<path d="M16972 440 c0 -14 2 -19 5 -12 2 6 2 18 0 25 -3 6 -5 1 -5 -13z"/>
<path d="M3760 423 c0 -5 12 -20 28 -34 l27 -24 -25 30 c-14 17 -26 32 -27 34
-2 2 -3 0 -3 -6z"/>
<path d="M16982 375 c0 -16 2 -22 5 -12 2 9 2 23 0 30 -3 6 -5 -1 -5 -18z"/>
<path d="M15572 289 c-18 -34 -31 -63 -29 -65 2 -2 20 25 39 61 20 36 33 65
30 65 -4 0 -22 -28 -40 -61z"/>
<path d="M16991 304 c1 -21 5 -52 9 -69 5 -19 6 -6 3 35 -6 73 -14 94 -12 34z"/>
<path d="M3980 191 c5 -11 15 -23 21 -27 6 -3 3 5 -6 20 -20 30 -30 35 -15 7z"/>
<path d="M15500 150 c-17 -33 -28 -60 -25 -60 2 0 18 27 35 60 17 33 28 60 25
60 -2 0 -18 -27 -35 -60z"/>
<path d="M4255 176 c10 -14 19 -26 22 -26 7 0 -17 39 -28 46 -6 3 -3 -5 6 -20z"/>
<path d="M17012 175 c0 -16 2 -22 5 -12 2 9 2 23 0 30 -3 6 -5 -1 -5 -18z"/>
<path d="M0 143 c0 -26 177 -143 215 -143 23 0 10 12 -81 73 -144 96 -134 91
-134 70z"/>
<path d="M4020 153 c0 -6 8 -17 18 -24 16 -13 16 -13 2 6 -8 11 -16 22 -17 24
-2 2 -3 0 -3 -6z"/>
<path d="M17018 115 c-4 -16 -2 -34 3 -40 5 -5 9 -20 10 -35 0 -14 3 -20 5
-14 2 5 1 35 -4 65 -7 48 -9 51 -14 24z"/>
<path d="M4330 105 c13 -14 26 -25 28 -25 3 0 -5 11 -18 25 -13 14 -26 25 -28
25 -3 0 5 -11 18 -25z"/>
<path d="M4097 59 c12 -12 25 -20 28 -17 3 3 -7 13 -22 23 l-28 17 22 -23z"/>
<path d="M15440 40 c-6 -11 -8 -20 -6 -20 3 0 10 9 16 20 6 11 8 20 6 20 -3 0
-10 -9 -16 -20z"/>
</g>
</svg>
